<svg width="20" height="20" viewBox="0 0 20 20" fill="none" xmlns="http://www.w3.org/2000/svg">
    <g clip-path="url(#clip0_2267_54338)">
        <path d="M10 19.5C15.2467 19.5 19.5 15.2467 19.5 10C19.5 4.75329 15.2467 0.5 10 0.5C4.75329 0.5 0.5 4.75329 0.5 10C0.5 15.2467 4.75329 19.5 10 19.5Z" fill="#88C9F9"/>
        <path d="M1.98411 13.8914C1.95139 13.3636 1.95139 13.2649 1.95139 12.6379C1.95139 12.0109 2.248 12.1102 2.54514 11.8135C2.84228 11.5169 2.77631 11.4837 3.27083 11.1586C3.76536 10.8335 3.502 10.4614 3.46875 10.2635C3.4355 10.0655 3.13889 10.2302 2.64383 10.2957C2.14878 10.3611 2.3145 10.131 2.01736 9.99905C1.72022 9.86711 1.58881 9.66919 1.39036 9.07544C1.19192 8.48169 1.15919 8.31649 1.22569 7.82197C1.29219 7.32744 1.52283 7.78872 1.55556 8.31649C1.58828 8.84427 2.05061 8.64636 2.05061 8.97622C2.05061 9.30608 2.71033 9.66866 2.875 9.76788C3.03967 9.86711 3.502 9.27283 3.66667 9.10816C3.83133 8.94349 4.02978 8.71233 4.09522 8.58038C4.16067 8.44844 4.98611 8.34922 5.15078 8.34922C5.31544 8.34922 5.71128 8.84427 5.71128 9.07491C5.71128 9.30555 5.90919 9.93255 6.07439 10.2951C6.23958 10.6577 6.60217 10.7237 6.93203 10.9876C7.26189 11.2515 7.42708 11.0203 7.42708 11.0203C7.42708 11.0203 7.29514 10.4598 7.29514 9.99747C7.29514 9.53513 7.69097 9.13983 7.69097 9.13983C7.69097 9.13983 8.31797 9.60163 8.35069 9.73358C8.38342 9.86552 8.87847 10.3273 8.91119 10.558C8.94392 10.7886 9.2078 11.0857 9.69389 11.1517C10.18 11.2177 9.83481 10.5912 9.99947 10.1621C10.1641 9.73305 10.3953 9.66708 10.6919 9.60163C10.9885 9.53619 11.2197 9.27177 11.4176 9.00788C11.6155 8.74399 11.9781 8.38088 11.9454 8.08427C11.9127 7.78766 11.8134 7.58922 11.6815 7.22663C11.5496 6.86405 12.0773 6.73158 12.3085 6.30302C12.5397 5.87447 12.3085 6.30302 12.8363 6.17108C13.3641 6.03913 13.1329 6.03913 13.2321 5.84122C13.3313 5.6433 13.3968 5.44538 13.2981 5.08227C13.1994 4.71916 12.8363 5.08227 12.4737 5.08227C12.1111 5.08227 12.6062 4.58933 12.6389 4.1935C12.6716 3.79766 13.1339 3.89688 13.4633 3.86363C13.7926 3.83038 13.8918 4.29219 13.9911 4.39141C14.0903 4.49063 15.1126 3.73169 15.3765 3.36858C15.6404 3.00547 15.1458 3.10522 15.2778 2.95216C15.4097 2.79911 14.4861 2.76797 14.123 2.70938C13.7599 2.6508 12.8368 2.61016 12.4742 2.38638C12.1116 2.16261 10.7262 2.3315 10.3631 2.51147C10 2.69144 9.76936 2.49616 9.60417 2.24758C9.43897 1.999 8.74653 2.12355 8.54861 1.98369C8.35069 1.84383 8.15278 2.21433 7.88889 2.31355C7.625 2.41277 7.52578 2.4455 7.19644 2.24758C6.86711 2.04966 7.29514 1.8185 6.83333 1.65383C6.52406 1.54352 6.15355 1.60791 5.57722 1.59525C2.55939 3.1865 0.5 6.35052 0.5 9.99905C0.5 11.804 1.01247 13.485 1.88647 14.9216C2.04903 14.6482 2.00839 14.2793 1.98411 13.8914ZM9.63689 13.2649C9.86806 13.2977 10.5278 13.2649 10 12.8364C9.47222 12.4078 9.17561 12.7372 9.24105 12.2426C9.3065 11.7481 8.91119 11.7476 8.91119 11.7476C8.91119 12.1107 8.6473 12.5065 8.91119 12.8691C9.17508 13.2317 9.40625 13.2317 9.63689 13.2649Z" fill="#5C913B"/>
        <path d="M13.0022 7.75743C12.4744 7.32887 12.8702 7.46081 12.9362 6.96576C13.0022 6.4707 12.6063 6.4707 12.6063 6.4707C12.6063 6.83381 12.3424 7.22965 12.6063 7.59223C12.8702 7.95481 12.0786 8.25195 12.3097 8.28468C12.5409 8.3174 13.5299 8.18598 13.0022 7.75743ZM10.9544 12.9033C11.2816 13.2664 11.1549 12.9033 11.5835 12.7386C12.0121 12.5739 11.2204 12.2108 10.9565 12.0129C10.6926 11.815 10.4303 11.8076 10.1997 12.2441C9.93789 12.7386 10.6272 12.5401 10.9544 12.9033ZM14.8161 13.563C14.6515 13.3651 14.2884 13.2664 13.8925 13.2753C13.4967 13.2848 13.5294 12.8373 13.1336 12.87C12.7378 12.9027 12.4549 12.604 12.2759 12.5116C11.887 12.3111 12.144 12.7708 12.2759 13.2748C12.4079 13.7788 12.9029 13.3973 13.3642 13.6611C13.8255 13.925 13.8593 13.5619 14.2878 13.6939C14.7164 13.8258 14.8816 14.1224 15.2927 14.0897C15.7039 14.057 14.9813 13.7609 14.8161 13.563ZM13.9585 15.0144C13.7938 14.6845 13.3114 14.3874 13.1135 14.2201C12.9156 14.0528 12.6058 13.9963 12.3419 14.0934C12.078 14.1905 11.9134 14.0934 11.7814 13.8321C11.6495 13.5709 11.4183 13.6622 11.2209 13.6949C11.0235 13.7276 10.2313 14.058 9.76953 14.2887C9.30772 14.5193 9.09767 14.7199 8.79472 15.0144C8.32078 15.4756 8.58203 15.179 8.79472 15.4762C9.00742 15.7728 8.56144 16.6964 8.52872 17.2242C8.496 17.752 9.37422 17.0595 9.70408 16.993C10.0339 16.9265 9.93683 16.7291 10.2007 16.5312C10.4646 16.3333 10.6361 16.2868 10.9259 16.5507C11.2156 16.8146 11.5951 17.059 11.5951 17.3556C11.5951 17.6522 12.6396 18.1473 13.0354 17.9493C13.4313 17.7514 13.6624 17.3556 14.025 17.0257C14.3876 16.6959 14.2562 16.0694 14.3549 15.6736C14.4536 15.2777 14.1232 15.3442 13.9585 15.0144Z" fill="#5C913B"/>
    </g>
    <defs>
        <clipPath id="clip0_2267_54338">
            <rect width="19" height="19" fill="white" transform="translate(0.5 0.5)"/>
        </clipPath>
    </defs>
</svg>
