    <svg width="379" height="110" viewBox="0 0 379 110" fill="none" xmlns="http://www.w3.org/2000/svg">
        <mask id="path-1-outside-1_61_623" maskUnits="userSpaceOnUse" x="-306" y="-1" width="686" height="112" fill="black">
            <rect fill="white" x="-306" y="-1" width="686" height="112"/>
            <path d="M-242.3 52.35V60.15C-242.3 67.55 -242.4 73.3 -242.6 77.4C-242.8 81.4 -243.15 84.6 -243.65 87C-244.15 89.4 -244.9 91.7 -245.9 93.9C-248.2 99.2 -251.6 103.2 -256.1 105.9C-260.6 108.5 -266.2 109.8 -272.9 109.8C-279.9 109.8 -285.8 108.4 -290.6 105.6C-295.3 102.7 -298.9 98.5 -301.4 93C-302.4 90.7 -303.15 88.25 -303.65 85.65C-304.05 83.05 -304.35 79.45 -304.55 74.85C-304.75 70.25 -304.85 63.65 -304.85 55.05C-304.85 46.45 -304.75 39.85 -304.55 35.25C-304.35 30.65 -304.05 27.05 -303.65 24.45C-303.15 21.85 -302.4 19.4 -301.4 17.1C-298.9 11.6 -295.3 7.45 -290.6 4.65C-285.8 1.74999 -279.9 0.299992 -272.9 0.299992C-264 0.299992 -256.9 2.64999 -251.6 7.35C-248.4 10.35 -246.15 14 -244.85 18.3C-243.55 22.6 -242.85 28.5 -242.75 36H-263.9C-264 31 -264.25 27.55 -264.65 25.65C-265.05 23.65 -265.75 22.2 -266.75 21.3C-268.35 19.9 -270.45 19.2 -273.05 19.2C-277.25 19.2 -280.1 20.95 -281.6 24.45C-282 25.45 -282.3 26.75 -282.5 28.35C-282.7 29.85 -282.85 32.9 -282.95 37.5C-283.05 42 -283.1 47.85 -283.1 55.05C-283.1 62.25 -283.05 68.15 -282.95 72.75C-282.85 77.25 -282.7 80.3 -282.5 81.9C-282.3 83.4 -282 84.65 -281.6 85.65C-280.1 89.15 -277.1 90.9 -272.6 90.9C-268.5 90.9 -265.7 89.35 -264.2 86.25C-263.8 85.35 -263.55 84 -263.45 82.2C-263.35 80.3 -263.3 76.15 -263.3 69.75H-273.05V52.35H-242.3ZM-204.052 109.95C-210.652 109.95 -216.302 108.65 -221.002 106.05C-225.602 103.45 -229.152 99.6 -231.652 94.5C-232.852 92.1 -233.752 89.5 -234.352 86.7C-234.952 83.9 -235.402 80.1 -235.702 75.3C-235.902 70.4 -236.002 63.65 -236.002 55.05C-236.002 46.55 -235.902 40 -235.702 35.4C-235.502 30.7 -235.152 27 -234.652 24.3C-234.152 21.6 -233.402 19.1 -232.402 16.8C-230.002 11.4 -226.402 7.29999 -221.602 4.49999C-216.802 1.59999 -210.952 0.149994 -204.052 0.149994C-197.052 0.149994 -191.202 1.54999 -186.502 4.34999C-181.702 7.14999 -178.102 11.3 -175.702 16.8C-174.702 19.1 -173.952 21.6 -173.452 24.3C-172.852 27 -172.452 30.7 -172.252 35.4C-172.052 40 -171.952 46.55 -171.952 55.05C-171.952 63.55 -172.052 70.15 -172.252 74.85C-172.452 79.45 -172.852 83.1 -173.452 85.8C-173.952 88.5 -174.702 91 -175.702 93.3C-178.102 98.8 -181.702 102.95 -186.502 105.75C-191.202 108.55 -197.052 109.95 -204.052 109.95ZM-204.052 90.6C-201.752 90.6 -199.902 90.15 -198.502 89.25C-197.102 88.25 -196.002 86.85 -195.202 85.05C-194.802 84.05 -194.502 82.8 -194.302 81.3C-194.102 79.7 -193.952 76.7 -193.852 72.3C-193.752 67.9 -193.702 62.15 -193.702 55.05C-193.702 47.95 -193.752 42.2 -193.852 37.8C-193.952 33.3 -194.102 30.3 -194.302 28.8C-194.502 27.3 -194.802 26.05 -195.202 25.05C-196.002 23.25 -197.102 21.9 -198.502 21C-199.902 20 -201.752 19.5 -204.052 19.5C-208.452 19.5 -211.402 21.35 -212.902 25.05C-213.302 26.05 -213.602 27.35 -213.802 28.95C-213.902 30.45 -214.002 33.4 -214.102 37.8C-214.202 42.2 -214.252 47.95 -214.252 55.05C-214.252 62.15 -214.202 67.95 -214.102 72.45C-214.002 76.85 -213.852 79.8 -213.652 81.3C-213.452 82.8 -213.152 84.05 -212.752 85.05C-211.252 88.75 -208.352 90.6 -204.052 90.6ZM-164.636 2.1H-136.136C-129.036 2.1 -123.086 3.5 -118.286 6.3C-113.486 9.09999 -109.886 13.1 -107.486 18.3C-106.486 20.4 -105.786 22.65 -105.386 25.05C-104.886 27.35 -104.536 30.75 -104.336 35.25C-104.136 39.75 -104.036 46.35 -104.036 55.05C-104.036 63.75 -104.136 70.35 -104.336 74.85C-104.536 79.35 -104.886 82.8 -105.386 85.2C-105.786 87.5 -106.486 89.7 -107.486 91.8C-109.886 97 -113.486 101 -118.286 103.8C-123.086 106.6 -129.036 108 -136.136 108H-164.636V2.1ZM-138.536 89.7C-135.536 89.7 -133.186 89.25 -131.486 88.35C-129.686 87.35 -128.336 85.85 -127.436 83.85C-127.036 82.95 -126.736 81.8 -126.536 80.4C-126.336 78.9 -126.186 76.05 -126.086 71.85C-125.986 67.55 -125.936 62.05 -125.936 55.35C-125.936 48.45 -125.986 42.85 -126.086 38.55C-126.186 34.15 -126.336 31.25 -126.536 29.85C-126.736 28.35 -127.036 27.15 -127.436 26.25C-128.336 24.25 -129.686 22.8 -131.486 21.9C-133.186 20.9 -135.536 20.4 -138.536 20.4H-143.486V89.7H-138.536ZM-78.4719 20.85H-100.522V2.1H-50.7219L-74.4219 89.25H-49.9719V108H-102.172L-78.4719 20.85ZM-44.0797 2.1H-22.9297V108H-44.0797V2.1ZM-14.1969 2.1H6.95313V88.8H21.9531V108H-14.1969V2.1ZM27.1117 2.1H48.2617V88.8H63.2617V108H27.1117V2.1ZM110.821 91.2H89.8211L87.4211 108H66.1211L83.9711 2.1H116.671L134.521 108H113.221L110.821 91.2ZM108.271 73.5L100.471 19.2H100.171L92.3711 73.5H108.271ZM184.172 109.95C177.272 109.95 171.572 108.8 167.072 106.5C162.672 104.2 159.522 100.95 157.622 96.75C157.022 95.25 156.522 93.85 156.122 92.55C155.822 91.15 155.622 89.05 155.522 86.25C155.422 83.35 155.372 79.85 155.372 75.75H177.722C177.722 79.85 177.772 82.85 177.872 84.75C177.972 86.55 178.172 87.85 178.472 88.65C179.472 91.05 181.522 92.25 184.622 92.25C186.122 92.25 187.372 92 188.372 91.5C189.372 90.9 190.122 90.05 190.622 88.95C190.922 88.35 191.072 87.45 191.072 86.25C191.172 84.95 191.222 83 191.222 80.4C191.222 77.6 191.122 75.6 190.922 74.4C190.822 73.2 190.572 72.05 190.172 70.95C189.572 69.75 188.722 68.7 187.622 67.8C186.522 66.9 185.122 66.05 183.422 65.25C181.822 64.45 180.122 63.65 178.322 62.85L175.472 61.65C171.172 59.45 167.622 57.25 164.822 55.05C162.122 52.85 160.122 50.3 158.822 47.4C157.922 45.3 157.272 42.95 156.872 40.35C156.572 37.75 156.422 34.05 156.422 29.25C156.422 24.95 156.572 21.75 156.872 19.65C157.172 17.45 157.822 15.3 158.822 13.2C160.722 9 163.772 5.8 167.972 3.59999C172.272 1.29999 177.672 0.149994 184.172 0.149994C190.472 0.149994 195.722 1.2 199.922 3.3C204.222 5.39999 207.322 8.54999 209.222 12.75C209.922 14.25 210.422 15.7 210.722 17.1C211.022 18.4 211.222 20.45 211.322 23.25C211.422 25.95 211.472 29.35 211.472 33.45H190.022C190.022 29.45 189.972 26.55 189.872 24.75C189.772 22.85 189.572 21.5 189.272 20.7C188.372 18.6 186.522 17.55 183.722 17.55C182.322 17.55 181.122 17.85 180.122 18.45C179.222 18.95 178.572 19.7 178.172 20.7C177.972 21.3 177.822 22.15 177.722 23.25C177.722 24.25 177.722 25.85 177.722 28.05C177.722 30.65 177.772 32.55 177.872 33.75C178.072 34.85 178.372 35.9 178.772 36.9C179.472 38.4 180.622 39.65 182.222 40.65C183.822 41.55 186.322 42.7 189.722 44.1L192.722 45.45C197.722 47.75 201.672 50 204.572 52.2C207.572 54.3 209.722 56.9 211.022 60C212.022 62.2 212.672 64.55 212.972 67.05C213.272 69.55 213.422 73.55 213.422 79.05C213.422 84.05 213.272 87.7 212.972 90C212.672 92.2 212.072 94.35 211.172 96.45C209.172 100.85 205.872 104.2 201.272 106.5C196.672 108.8 190.972 109.95 184.172 109.95ZM250.489 109.95C243.889 109.95 238.239 108.65 233.539 106.05C228.939 103.45 225.389 99.6 222.889 94.5C221.689 92.1 220.789 89.5 220.189 86.7C219.589 83.9 219.139 80.1 218.839 75.3C218.639 70.4 218.539 63.65 218.539 55.05C218.539 46.55 218.639 40 218.839 35.4C219.039 30.7 219.389 27 219.889 24.3C220.389 21.6 221.139 19.1 222.139 16.8C224.539 11.4 228.139 7.29999 232.939 4.49999C237.739 1.59999 243.589 0.149994 250.489 0.149994C257.489 0.149994 263.339 1.54999 268.039 4.34999C272.839 7.14999 276.439 11.3 278.839 16.8C279.839 19.1 280.589 21.6 281.089 24.3C281.689 27 282.089 30.7 282.289 35.4C282.489 40 282.589 46.55 282.589 55.05C282.589 63.55 282.489 70.15 282.289 74.85C282.089 79.45 281.689 83.1 281.089 85.8C280.589 88.5 279.839 91 278.839 93.3C276.439 98.8 272.839 102.95 268.039 105.75C263.339 108.55 257.489 109.95 250.489 109.95ZM250.489 90.6C252.789 90.6 254.639 90.15 256.039 89.25C257.439 88.25 258.539 86.85 259.339 85.05C259.739 84.05 260.039 82.8 260.239 81.3C260.439 79.7 260.589 76.7 260.689 72.3C260.789 67.9 260.839 62.15 260.839 55.05C260.839 47.95 260.789 42.2 260.689 37.8C260.589 33.3 260.439 30.3 260.239 28.8C260.039 27.3 259.739 26.05 259.339 25.05C258.539 23.25 257.439 21.9 256.039 21C254.639 20 252.789 19.5 250.489 19.5C246.089 19.5 243.139 21.35 241.639 25.05C241.239 26.05 240.939 27.35 240.739 28.95C240.639 30.45 240.539 33.4 240.439 37.8C240.339 42.2 240.289 47.95 240.289 55.05C240.289 62.15 240.339 67.95 240.439 72.45C240.539 76.85 240.689 79.8 240.889 81.3C241.089 82.8 241.389 84.05 241.789 85.05C243.289 88.75 246.189 90.6 250.489 90.6ZM289.905 2.1H328.755V20.85H311.055V43.05H328.455V61.65H311.055V108H289.905V2.1ZM344.611 20.85H331.861V2.1H378.511V20.85H365.761V108H344.611V20.85Z"/>
        </mask>
        <path d="M-242.3 52.35H-241.3V51.35H-242.3V52.35ZM-242.6 77.4L-241.601 77.4499L-241.601 77.4487L-242.6 77.4ZM-243.65 87L-242.671 87.204L-243.65 87ZM-245.9 93.9L-246.81 93.4862L-246.814 93.494L-246.817 93.5019L-245.9 93.9ZM-256.1 105.9L-255.6 106.766L-255.593 106.762L-255.586 106.757L-256.1 105.9ZM-290.6 105.6L-291.125 106.451L-291.115 106.458L-291.104 106.464L-290.6 105.6ZM-301.4 93L-302.317 93.3987L-302.314 93.4063L-302.31 93.4138L-301.4 93ZM-303.65 85.65L-304.638 85.8021L-304.636 85.8205L-304.632 85.8388L-303.65 85.65ZM-304.55 74.85L-303.551 74.8066L-304.55 74.85ZM-304.55 35.25L-303.551 35.2934L-304.55 35.25ZM-303.65 24.45L-304.632 24.2611L-304.636 24.2795L-304.638 24.2979L-303.65 24.45ZM-301.4 17.1L-302.31 16.6862L-302.314 16.6937L-302.317 16.7013L-301.4 17.1ZM-290.6 4.65L-290.088 5.50912L-290.083 5.50591L-290.6 4.65ZM-251.6 7.35L-250.916 6.62046L-250.926 6.611L-250.937 6.60181L-251.6 7.35ZM-244.85 18.3L-243.893 18.0106V18.0106L-244.85 18.3ZM-242.75 36V37H-241.737L-241.75 35.9867L-242.75 36ZM-263.9 36L-264.9 36.02L-264.88 37H-263.9V36ZM-264.65 25.65L-265.631 25.8461L-265.629 25.856L-264.65 25.65ZM-266.75 21.3L-266.081 20.5566L-266.091 20.5474L-266.75 21.3ZM-281.6 24.45L-282.519 24.0561L-282.524 24.0673L-282.528 24.0786L-281.6 24.45ZM-282.5 28.35L-281.509 28.4822L-281.508 28.474L-282.5 28.35ZM-282.95 37.5L-281.95 37.5222L-281.95 37.5217L-282.95 37.5ZM-282.95 72.75L-283.95 72.7717L-283.95 72.7722L-282.95 72.75ZM-282.5 81.9L-283.492 82.024L-283.491 82.0322L-282.5 81.9ZM-281.6 85.65L-282.528 86.0214L-282.524 86.0327L-282.519 86.0439L-281.6 85.65ZM-264.2 86.25L-263.3 86.6856L-263.293 86.671L-263.286 86.6561L-264.2 86.25ZM-263.45 82.2L-262.452 82.2555L-262.451 82.2526L-263.45 82.2ZM-263.3 69.75H-262.3V68.75H-263.3V69.75ZM-273.05 69.75H-274.05V70.75H-273.05V69.75ZM-273.05 52.35V51.35H-274.05V52.35H-273.05ZM-243.3 52.35V60.15H-241.3V52.35H-243.3ZM-243.3 60.15C-243.3 67.5444 -243.4 73.2755 -243.599 77.3513L-241.601 77.4487C-241.4 73.3245 -241.3 67.5556 -241.3 60.15H-243.3ZM-243.599 77.3501C-243.798 81.3263 -244.144 84.4684 -244.629 86.796L-242.671 87.204C-242.156 84.7316 -241.802 81.4737 -241.601 77.4499L-243.599 77.3501ZM-244.629 86.796C-245.114 89.1248 -245.841 91.3544 -246.81 93.4862L-244.99 94.3138C-243.959 92.0456 -243.186 89.6752 -242.671 87.204L-244.629 86.796ZM-246.817 93.5019C-249.043 98.6308 -252.311 102.461 -256.614 105.043L-255.586 106.757C-250.889 103.939 -247.357 99.7692 -244.983 94.2981L-246.817 93.5019ZM-256.6 105.034C-260.91 107.524 -266.326 108.8 -272.9 108.8V110.8C-266.074 110.8 -260.29 109.476 -255.6 106.766L-256.6 105.034ZM-272.9 108.8C-279.768 108.8 -285.484 107.427 -290.096 104.736L-291.104 106.464C-286.116 109.373 -280.032 110.8 -272.9 110.8V108.8ZM-290.075 104.749C-294.59 101.963 -298.064 97.9232 -300.49 92.5862L-302.31 93.4138C-299.736 99.0768 -296.01 103.437 -291.125 106.451L-290.075 104.749ZM-300.483 92.6013C-301.452 90.3723 -302.181 87.993 -302.668 85.4612L-304.632 85.8388C-304.119 88.507 -303.348 91.0277 -302.317 93.3987L-300.483 92.6013ZM-302.662 85.4979C-303.053 82.9509 -303.352 79.3928 -303.551 74.8066L-305.549 74.8934C-305.348 79.5072 -305.047 83.1491 -304.638 85.8021L-302.662 85.4979ZM-303.551 74.8066C-303.75 70.2285 -303.85 63.6456 -303.85 55.05H-305.85C-305.85 63.6544 -305.75 70.2715 -305.549 74.8934L-303.551 74.8066ZM-303.85 55.05C-303.85 46.4544 -303.75 39.8715 -303.551 35.2934L-305.549 35.2066C-305.75 39.8285 -305.85 46.4456 -305.85 55.05H-303.85ZM-303.551 35.2934C-303.352 30.7072 -303.053 27.1491 -302.662 24.6021L-304.638 24.2979C-305.047 26.9509 -305.348 30.5928 -305.549 35.2066L-303.551 35.2934ZM-302.668 24.6388C-302.181 22.107 -301.452 19.7277 -300.483 17.4987L-302.317 16.7013C-303.348 19.0723 -304.119 21.593 -304.632 24.2611L-302.668 24.6388ZM-300.49 17.5138C-298.065 12.1792 -294.595 8.19394 -290.088 5.5091L-291.112 3.7909C-296.005 6.70606 -299.735 11.0208 -302.31 16.6862L-300.49 17.5138ZM-290.083 5.50591C-285.473 2.72096 -279.763 1.29999 -272.9 1.29999V-0.700008C-280.037 -0.700008 -286.127 0.779024 -291.117 3.79408L-290.083 5.50591ZM-272.9 1.29999C-264.18 1.29999 -257.337 3.59887 -252.263 8.09819L-250.937 6.60181C-256.463 1.70113 -263.82 -0.700008 -272.9 -0.700008V1.29999ZM-252.284 8.07954C-249.215 10.9564 -247.058 14.4533 -245.807 18.5894L-243.893 18.0106C-245.242 13.5467 -247.585 9.74362 -250.916 6.62046L-252.284 8.07954ZM-245.807 18.5894C-244.546 22.76 -243.849 28.5533 -243.75 36.0133L-241.75 35.9867C-241.851 28.4467 -242.554 22.44 -243.893 18.0106L-245.807 18.5894ZM-242.75 35H-263.9V37H-242.75V35ZM-262.9 35.98C-263 30.9851 -263.25 27.4475 -263.671 25.444L-265.629 25.856C-265.25 27.6525 -265 31.0149 -264.9 36.02L-262.9 35.98ZM-263.669 25.4539C-264.091 23.3458 -264.857 21.658 -266.081 20.5567L-267.419 22.0433C-266.643 22.742 -266.009 23.9542 -265.631 25.8461L-263.669 25.4539ZM-266.091 20.5474C-267.912 18.9544 -270.264 18.2 -273.05 18.2V20.2C-270.636 20.2 -268.788 20.8456 -267.409 22.0526L-266.091 20.5474ZM-273.05 18.2C-275.288 18.2 -277.243 18.6668 -278.861 19.6603C-280.486 20.6581 -281.699 22.1434 -282.519 24.0561L-280.681 24.8439C-280.001 23.2566 -279.039 22.1169 -277.814 21.3647C-276.582 20.6082 -275.012 20.2 -273.05 20.2V18.2ZM-282.528 24.0786C-282.972 25.1868 -283.286 26.5787 -283.492 28.226L-281.508 28.474C-281.314 26.9213 -281.028 25.7132 -280.672 24.8214L-282.528 24.0786ZM-283.491 28.2178C-283.7 29.7822 -283.85 32.8881 -283.95 37.4783L-281.95 37.5217C-281.85 32.9118 -281.7 29.9178 -281.509 28.4822L-283.491 28.2178ZM-283.95 37.4778C-284.05 41.9882 -284.1 47.8464 -284.1 55.05H-282.1C-282.1 47.8536 -282.05 42.0118 -281.95 37.5222L-283.95 37.4778ZM-284.1 55.05C-284.1 62.2537 -284.05 68.1617 -283.95 72.7717L-281.95 72.7283C-282.05 68.1383 -282.1 62.2463 -282.1 55.05H-284.1ZM-283.95 72.7722C-283.85 77.2664 -283.7 80.3658 -283.492 82.024L-281.508 81.776C-281.7 80.2342 -281.85 77.2336 -281.95 72.7278L-283.95 72.7722ZM-283.491 82.0322C-283.284 83.5839 -282.969 84.9206 -282.528 86.0214L-280.672 85.2786C-281.031 84.3794 -281.316 83.2161 -281.509 81.7678L-283.491 82.0322ZM-282.519 86.0439C-281.693 87.971 -280.432 89.4577 -278.729 90.4513C-277.037 91.4381 -274.976 91.9 -272.6 91.9V89.9C-274.724 89.9 -276.413 89.4868 -277.721 88.7237C-279.018 87.9673 -280.007 86.829 -280.681 85.2561L-282.519 86.0439ZM-272.6 91.9C-270.427 91.9 -268.525 91.4894 -266.941 90.6124C-265.346 89.7297 -264.133 88.4065 -263.3 86.6856L-265.1 85.8144C-265.767 87.1935 -266.704 88.1953 -267.909 88.8626C-269.125 89.5356 -270.673 89.9 -272.6 89.9V91.9ZM-263.286 86.6561C-262.812 85.5885 -262.554 84.0931 -262.452 82.2555L-264.448 82.1445C-264.546 83.9068 -264.788 85.1115 -265.114 85.8439L-263.286 86.6561ZM-262.451 82.2526C-262.35 80.3212 -262.3 76.1434 -262.3 69.75H-264.3C-264.3 76.1566 -264.35 80.2788 -264.449 82.1474L-262.451 82.2526ZM-263.3 68.75H-273.05V70.75H-263.3V68.75ZM-272.05 69.75V52.35H-274.05V69.75H-272.05ZM-273.05 53.35H-242.3V51.35H-273.05V53.35ZM-221.002 106.05L-221.494 106.921L-221.486 106.925L-221.002 106.05ZM-231.652 94.5L-230.754 94.0598L-230.758 94.0528L-231.652 94.5ZM-235.702 75.3L-236.702 75.3408L-236.701 75.3516L-236.7 75.3624L-235.702 75.3ZM-235.702 35.4L-234.703 35.4434L-234.703 35.4425L-235.702 35.4ZM-234.652 24.3L-233.669 24.4821L-234.652 24.3ZM-232.402 16.8L-233.316 16.3938L-233.319 16.4013L-232.402 16.8ZM-221.602 4.49999L-221.098 5.36377L-221.092 5.35989L-221.085 5.35591L-221.602 4.49999ZM-186.502 4.34999L-187.014 5.20913L-187.006 5.21377L-186.502 4.34999ZM-175.702 16.8L-174.785 16.4013L-174.786 16.4001L-175.702 16.8ZM-173.452 24.3L-174.436 24.4821L-174.432 24.4996L-174.429 24.5169L-173.452 24.3ZM-172.252 35.4L-173.251 35.4425L-173.251 35.4434L-172.252 35.4ZM-172.252 74.85L-171.253 74.8934L-171.253 74.8925L-172.252 74.85ZM-173.452 85.8L-174.429 85.5831L-174.432 85.6004L-174.436 85.6179L-173.452 85.8ZM-175.702 93.3L-174.786 93.6999L-174.785 93.6987L-175.702 93.3ZM-186.502 105.75L-187.006 104.886L-187.014 104.891L-186.502 105.75ZM-198.502 89.25L-197.962 90.0912L-197.941 90.0779L-197.921 90.0637L-198.502 89.25ZM-195.202 85.05L-194.289 85.4561L-194.281 85.4389L-194.274 85.4214L-195.202 85.05ZM-194.302 81.3L-193.311 81.4322L-193.31 81.424L-194.302 81.3ZM-193.852 37.8L-194.852 37.8222L-194.852 37.8227L-193.852 37.8ZM-194.302 28.8L-195.294 28.9322L-194.302 28.8ZM-195.202 25.05L-194.274 24.6786L-194.281 24.6611L-194.289 24.6439L-195.202 25.05ZM-198.502 21L-199.084 21.8137L-199.064 21.8279L-199.043 21.8412L-198.502 21ZM-212.902 25.05L-213.829 24.6743L-213.831 24.6786L-212.902 25.05ZM-213.802 28.95L-214.795 28.826L-214.798 28.8546L-214.8 28.8835L-213.802 28.95ZM-214.102 72.45L-215.102 72.4722L-215.102 72.4727L-214.102 72.45ZM-213.652 81.3L-214.644 81.4322V81.4322L-213.652 81.3ZM-212.752 85.05L-213.681 85.4214L-213.679 85.4257L-212.752 85.05ZM-204.052 108.95C-210.521 108.95 -215.997 107.676 -220.518 105.175L-221.486 106.925C-216.608 109.624 -210.783 110.95 -204.052 110.95V108.95ZM-220.51 105.179C-224.921 102.686 -228.336 98.993 -230.754 94.0598L-232.55 94.9402C-229.968 100.207 -226.283 104.214 -221.494 106.921L-220.51 105.179ZM-230.758 94.0528C-231.918 91.7331 -232.791 89.2136 -233.375 86.4905L-235.33 86.9095C-234.714 89.7864 -233.787 92.4669 -232.547 94.9472L-230.758 94.0528ZM-233.375 86.4905C-233.96 83.7605 -234.406 80.0165 -234.704 75.2376L-236.7 75.3624C-236.399 80.1835 -235.945 84.0395 -235.33 86.9095L-233.375 86.4905ZM-234.703 75.2592C-234.902 70.3792 -235.002 63.6449 -235.002 55.05H-237.002C-237.002 63.6551 -236.902 70.4208 -236.702 75.3408L-234.703 75.2592ZM-235.002 55.05C-235.002 46.5546 -234.902 40.0216 -234.703 35.4434L-236.701 35.3566C-236.902 39.9784 -237.002 46.5454 -237.002 55.05H-235.002ZM-234.703 35.4425C-234.504 30.7614 -234.157 27.1149 -233.669 24.4821L-235.636 24.1179C-236.148 26.8851 -236.501 30.6386 -236.701 35.3575L-234.703 35.4425ZM-233.669 24.4821C-233.182 21.8496 -232.452 19.423 -231.485 17.1987L-233.319 16.4013C-234.352 18.7769 -235.123 21.3504 -235.636 24.1179L-233.669 24.4821ZM-231.489 17.2061C-229.168 11.985 -225.705 8.05112 -221.098 5.36377L-222.106 3.63621C-227.099 6.54885 -230.837 10.815 -233.316 16.3939L-231.489 17.2061ZM-221.085 5.35591C-216.474 2.5697 -210.812 1.14999 -204.052 1.14999V-0.850006C-211.093 -0.850006 -217.131 0.630289 -222.119 3.64408L-221.085 5.35591ZM-204.052 1.14999C-197.183 1.14999 -191.522 2.52373 -187.014 5.2091L-185.991 3.49089C-190.883 0.57626 -196.922 -0.850006 -204.052 -0.850006V1.14999ZM-187.006 5.21377C-182.404 7.89817 -178.941 11.878 -176.619 17.1999L-174.786 16.4001C-177.263 10.722 -181 6.40182 -185.998 3.48621L-187.006 5.21377ZM-176.619 17.1987C-175.652 19.423 -174.923 21.8496 -174.436 24.4821L-172.469 24.1179C-172.982 21.3504 -173.752 18.7769 -174.785 16.4013L-176.619 17.1987ZM-174.429 24.5169C-173.847 27.1335 -173.45 30.7666 -173.251 35.4425L-171.253 35.3575C-171.454 30.6334 -171.858 26.8665 -172.476 24.0831L-174.429 24.5169ZM-173.251 35.4434C-173.052 40.0216 -172.952 46.5546 -172.952 55.05H-170.952C-170.952 46.5454 -171.052 39.9784 -171.253 35.3566L-173.251 35.4434ZM-172.952 55.05C-172.952 63.5452 -173.052 70.1286 -173.251 74.8075L-171.253 74.8925C-171.052 70.1714 -170.952 63.5548 -170.952 55.05H-172.952ZM-173.251 74.8066C-173.45 79.3811 -173.847 82.9652 -174.429 85.5831L-172.476 86.0169C-171.858 83.2348 -171.454 79.5189 -171.253 74.8934L-173.251 74.8066ZM-174.436 85.6179C-174.923 88.2504 -175.652 90.677 -176.619 92.9013L-174.785 93.6987C-173.752 91.323 -172.982 88.7496 -172.469 85.9821L-174.436 85.6179ZM-176.619 92.9001C-178.941 98.222 -182.404 102.202 -187.006 104.886L-185.998 106.614C-181 103.698 -177.263 99.378 -174.786 93.6999L-176.619 92.9001ZM-187.014 104.891C-191.522 107.576 -197.183 108.95 -204.052 108.95V110.95C-196.922 110.95 -190.883 109.524 -185.991 106.609L-187.014 104.891ZM-204.052 91.6C-201.631 91.6 -199.573 91.1274 -197.962 90.0912L-199.043 88.4088C-200.231 89.1726 -201.873 89.6 -204.052 89.6V91.6ZM-197.921 90.0637C-196.356 88.9457 -195.15 87.3952 -194.289 85.4561L-196.116 84.6439C-196.854 86.3048 -197.849 87.5543 -199.084 88.4363L-197.921 90.0637ZM-194.274 85.4214C-193.834 84.3206 -193.518 82.9839 -193.311 81.4322L-195.294 81.1678C-195.487 82.6161 -195.771 83.7794 -196.131 84.6786L-194.274 85.4214ZM-193.31 81.424C-193.103 79.7664 -192.952 76.7178 -192.853 72.3227L-194.852 72.2773C-194.952 76.6822 -195.102 79.6336 -195.295 81.176L-193.31 81.424ZM-192.853 72.3227C-192.752 67.912 -192.702 62.1536 -192.702 55.05H-194.702C-194.702 62.1464 -194.752 67.888 -194.852 72.2773L-192.853 72.3227ZM-192.702 55.05C-192.702 47.9464 -192.752 42.188 -192.853 37.7773L-194.852 37.8227C-194.752 42.212 -194.702 47.9536 -194.702 55.05H-192.702ZM-192.853 37.7778C-192.952 33.2867 -193.103 30.2316 -193.311 28.6678L-195.294 28.9322C-195.102 30.3684 -194.952 33.3133 -194.852 37.8222L-192.853 37.7778ZM-193.311 28.6678C-193.518 27.1161 -193.834 25.7794 -194.274 24.6786L-196.131 25.4214C-195.771 26.3206 -195.487 27.4839 -195.294 28.9322L-193.311 28.6678ZM-194.289 24.6439C-195.153 22.6989 -196.369 21.1824 -197.962 20.1588L-199.043 21.8412C-197.835 22.6175 -196.852 23.8011 -196.116 25.4561L-194.289 24.6439ZM-197.921 20.1863C-199.539 19.0303 -201.613 18.5 -204.052 18.5V20.5C-201.892 20.5 -200.265 20.9697 -199.084 21.8137L-197.921 20.1863ZM-204.052 18.5C-206.391 18.5 -208.425 18.9922 -210.096 20.0403C-211.775 21.0929 -213.012 22.6591 -213.829 24.6743L-211.976 25.4257C-211.293 23.7409 -210.305 22.5321 -209.034 21.7347C-207.755 20.9328 -206.114 20.5 -204.052 20.5V18.5ZM-213.831 24.6786C-214.274 25.7868 -214.589 27.1787 -214.795 28.826L-212.81 29.074C-212.616 27.5213 -212.331 26.3132 -211.974 25.4214L-213.831 24.6786ZM-214.8 28.8835C-214.902 30.4089 -215.002 33.3805 -215.102 37.7773L-213.103 37.8227C-213.003 33.4195 -212.903 30.4911 -212.805 29.0165L-214.8 28.8835ZM-215.102 37.7773C-215.202 42.188 -215.252 47.9464 -215.252 55.05H-213.252C-213.252 47.9536 -213.202 42.212 -213.103 37.8227L-215.102 37.7773ZM-215.252 55.05C-215.252 62.1537 -215.202 67.9619 -215.102 72.4722L-213.103 72.4278C-213.202 67.9381 -213.252 62.1463 -213.252 55.05H-215.252ZM-215.102 72.4727C-215.002 76.8648 -214.852 79.869 -214.644 81.4322L-212.661 81.1678C-212.853 79.731 -213.002 76.8352 -213.103 72.4273L-215.102 72.4727ZM-214.644 81.4322C-214.437 82.9839 -214.121 84.3206 -213.681 85.4214L-211.824 84.6786C-212.184 83.7794 -212.468 82.6161 -212.661 81.1678L-214.644 81.4322ZM-213.679 85.4257C-212.864 87.4362 -211.642 89.0017 -209.99 90.0556C-208.344 91.1059 -206.345 91.6 -204.052 91.6V89.6C-206.059 89.6 -207.661 89.1691 -208.915 88.3694C-210.163 87.5733 -211.141 86.3638 -211.826 84.6743L-213.679 85.4257ZM-164.636 2.09999V1.09999H-165.636V2.09999H-164.636ZM-118.286 6.3L-117.782 5.43621L-118.286 6.3ZM-107.486 18.3L-108.394 18.7191L-108.389 18.7299L-107.486 18.3ZM-105.386 25.05L-106.373 25.2144L-106.369 25.2385L-106.363 25.2624L-105.386 25.05ZM-104.336 35.25L-105.335 35.2944L-104.336 35.25ZM-104.336 74.85L-105.335 74.8056L-104.336 74.85ZM-105.386 85.2L-106.365 84.996L-106.369 85.0123L-106.372 85.0287L-105.386 85.2ZM-107.486 91.8L-108.389 91.37L-108.394 91.3809L-107.486 91.8ZM-118.286 103.8L-117.782 104.664L-118.286 103.8ZM-164.636 108H-165.636V109H-164.636V108ZM-131.486 88.35L-131.018 89.2338L-131.01 89.2291L-131.001 89.2242L-131.486 88.35ZM-127.436 83.85L-126.524 84.2604L-126.523 84.2561L-127.436 83.85ZM-126.536 80.4L-125.546 80.5414L-125.545 80.5322L-126.536 80.4ZM-126.086 71.85L-125.087 71.8738L-125.087 71.8732L-126.086 71.85ZM-126.086 38.55L-127.086 38.5727L-127.086 38.5732L-126.086 38.55ZM-126.536 29.85L-127.528 29.9822L-127.526 29.9914L-126.536 29.85ZM-127.436 26.25L-126.523 25.8439L-126.524 25.8396L-127.436 26.25ZM-131.486 21.9L-131.993 22.7619L-131.964 22.7792L-131.934 22.7944L-131.486 21.9ZM-143.486 20.4V19.4H-144.486V20.4H-143.486ZM-143.486 89.7H-144.486V90.7H-143.486V89.7ZM-164.636 3.09999H-136.136V1.09999H-164.636V3.09999ZM-136.136 3.09999C-129.165 3.09999 -123.4 4.47451 -118.79 7.16377L-117.782 5.43621C-122.772 2.52547 -128.908 1.09999 -136.136 1.09999V3.09999ZM-118.79 7.16377C-114.173 9.85714 -110.711 13.6991 -108.394 18.7191L-106.578 17.8809C-109.061 12.5009 -112.8 8.34285 -117.782 5.43621L-118.79 7.16377ZM-108.389 18.7299C-107.431 20.7419 -106.758 22.9021 -106.373 25.2144L-104.4 24.8856C-104.815 22.3979 -105.542 20.0581 -106.583 17.8701L-108.389 18.7299ZM-106.363 25.2624C-105.882 27.4777 -105.535 30.8097 -105.335 35.2944L-103.337 35.2056C-103.538 30.6903 -103.891 27.2222 -104.409 24.8376L-106.363 25.2624ZM-105.335 35.2944C-105.136 39.7717 -105.036 46.3539 -105.036 55.05H-103.036C-103.036 46.3461 -103.136 39.7283 -103.337 35.2056L-105.335 35.2944ZM-105.036 55.05C-105.036 63.7461 -105.136 70.3283 -105.335 74.8056L-103.337 74.8944C-103.136 70.3717 -103.036 63.7539 -103.036 55.05H-105.036ZM-105.335 74.8056C-105.535 79.2885 -105.882 82.6752 -106.365 84.996L-104.407 85.404C-103.891 82.9248 -103.538 79.4115 -103.337 74.8944L-105.335 74.8056ZM-106.372 85.0287C-106.756 87.2395 -107.428 89.3524 -108.389 91.3701L-106.583 92.2299C-105.544 90.0476 -104.817 87.7605 -104.401 85.3713L-106.372 85.0287ZM-108.394 91.3809C-110.711 96.4009 -114.173 100.243 -118.79 102.936L-117.782 104.664C-112.8 101.757 -109.061 97.5992 -106.578 92.2191L-108.394 91.3809ZM-118.79 102.936C-123.4 105.625 -129.165 107 -136.136 107V109C-128.908 109 -122.772 107.575 -117.782 104.664L-118.79 102.936ZM-136.136 107H-164.636V109H-136.136V107ZM-163.636 108V2.09999H-165.636V108H-163.636ZM-138.536 90.7C-135.456 90.7 -132.921 90.2411 -131.018 89.2338L-131.954 87.4662C-133.451 88.2589 -135.617 88.7 -138.536 88.7V90.7ZM-131.001 89.2242C-129 88.1125 -127.507 86.4432 -126.524 84.2604L-128.348 83.4396C-129.166 85.2568 -130.373 86.5875 -131.972 87.4758L-131.001 89.2242ZM-126.523 84.2561C-126.073 83.244 -125.754 81.9966 -125.546 80.5414L-127.526 80.2586C-127.718 81.6034 -128 82.656 -128.35 83.4439L-126.523 84.2561ZM-125.545 80.5322C-125.337 78.9703 -125.186 76.0678 -125.087 71.8738L-127.086 71.8262C-127.186 76.0321 -127.336 78.8297 -127.528 80.2678L-125.545 80.5322ZM-125.087 71.8732C-124.986 67.5625 -124.936 62.054 -124.936 55.35H-126.936C-126.936 62.046 -126.986 67.5375 -127.086 71.8268L-125.087 71.8732ZM-124.936 55.35C-124.936 48.4463 -124.986 42.8377 -125.087 38.5267L-127.086 38.5732C-126.986 42.8623 -126.936 48.4537 -126.936 55.35H-124.936ZM-125.087 38.5273C-125.186 34.1389 -125.336 31.178 -125.546 29.7086L-127.526 29.9914C-127.336 31.322 -127.186 34.161 -127.086 38.5727L-125.087 38.5273ZM-125.545 29.7178C-125.752 28.1682 -126.069 26.8645 -126.523 25.8439L-128.35 26.6561C-128.004 27.4355 -127.721 28.5318 -127.528 29.9822L-125.545 29.7178ZM-126.524 25.8396C-127.51 23.6497 -129.014 22.0181 -131.039 21.0056L-131.934 22.7944C-130.359 23.5819 -129.163 24.8503 -128.348 26.6604L-126.524 25.8396ZM-130.979 21.0381C-132.893 19.9124 -135.444 19.4 -138.536 19.4V21.4C-135.629 21.4 -133.48 21.8876 -131.993 22.7619L-130.979 21.0381ZM-138.536 19.4H-143.486V21.4H-138.536V19.4ZM-144.486 20.4V89.7H-142.486V20.4H-144.486ZM-143.486 90.7H-138.536V88.7H-143.486V90.7ZM-78.4719 20.85L-77.5069 21.1124L-77.1636 19.85H-78.4719V20.85ZM-100.522 20.85H-101.522V21.85H-100.522V20.85ZM-100.522 2.09999V1.09999H-101.522V2.09999H-100.522ZM-50.7219 2.09999L-49.7569 2.36241L-49.4136 1.09999H-50.7219V2.09999ZM-74.4219 89.25L-75.3868 88.9876L-75.7301 90.25H-74.4219V89.25ZM-49.9719 89.25H-48.9719V88.25H-49.9719V89.25ZM-49.9719 108V109H-48.9719V108H-49.9719ZM-102.172 108L-103.137 107.738L-103.48 109H-102.172V108ZM-78.4719 19.85H-100.522V21.85H-78.4719V19.85ZM-99.5219 20.85V2.09999H-101.522V20.85H-99.5219ZM-100.522 3.09999H-50.7219V1.09999H-100.522V3.09999ZM-51.6868 1.83758L-75.3868 88.9876L-73.4569 89.5124L-49.7569 2.36241L-51.6868 1.83758ZM-74.4219 90.25H-49.9719V88.25H-74.4219V90.25ZM-50.9719 89.25V108H-48.9719V89.25H-50.9719ZM-49.9719 107H-102.172V109H-49.9719V107ZM-101.207 108.262L-77.5069 21.1124L-79.4368 20.5876L-103.137 107.738L-101.207 108.262ZM-44.0797 2.09999V1.09999H-45.0797V2.09999H-44.0797ZM-22.9297 2.09999H-21.9297V1.09999H-22.9297V2.09999ZM-22.9297 108V109H-21.9297V108H-22.9297ZM-44.0797 108H-45.0797V109H-44.0797V108ZM-44.0797 3.09999H-22.9297V1.09999H-44.0797V3.09999ZM-23.9297 2.09999V108H-21.9297V2.09999H-23.9297ZM-22.9297 107H-44.0797V109H-22.9297V107ZM-43.0797 108V2.09999H-45.0797V108H-43.0797ZM-14.1969 2.09999V1.09999H-15.1969V2.09999H-14.1969ZM6.95312 2.09999H7.95312V1.09999H6.95312V2.09999ZM6.95312 88.8H5.95312V89.8H6.95312V88.8ZM21.9531 88.8H22.9531V87.8H21.9531V88.8ZM21.9531 108V109H22.9531V108H21.9531ZM-14.1969 108H-15.1969V109H-14.1969V108ZM-14.1969 3.09999H6.95312V1.09999H-14.1969V3.09999ZM5.95312 2.09999V88.8H7.95312V2.09999H5.95312ZM6.95312 89.8H21.9531V87.8H6.95312V89.8ZM20.9531 88.8V108H22.9531V88.8H20.9531ZM21.9531 107H-14.1969V109H21.9531V107ZM-13.1969 108V2.09999H-15.1969V108H-13.1969ZM27.1117 2.09999V1.09999H26.1117V2.09999H27.1117ZM48.2617 2.09999H49.2617V1.09999H48.2617V2.09999ZM48.2617 88.8H47.2617V89.8H48.2617V88.8ZM63.2617 88.8H64.2617V87.8H63.2617V88.8ZM63.2617 108V109H64.2617V108H63.2617ZM27.1117 108H26.1117V109H27.1117V108ZM27.1117 3.09999H48.2617V1.09999H27.1117V3.09999ZM47.2617 2.09999V88.8H49.2617V2.09999H47.2617ZM48.2617 89.8H63.2617V87.8H48.2617V89.8ZM62.2617 88.8V108H64.2617V88.8H62.2617ZM63.2617 107H27.1117V109H63.2617V107ZM28.1117 108V2.09999H26.1117V108H28.1117ZM110.821 91.2L111.811 91.0586L111.688 90.2H110.821V91.2ZM89.8211 91.2V90.2H88.9538L88.8311 91.0586L89.8211 91.2ZM87.4211 108V109H88.2884L88.411 108.141L87.4211 108ZM66.1211 108L65.135 107.834L64.9384 109H66.1211V108ZM83.9711 2.09999V1.09999H83.1255L82.985 1.93378L83.9711 2.09999ZM116.671 2.09999L117.657 1.93378L117.517 1.09999H116.671V2.09999ZM134.521 108V109H135.704L135.507 107.834L134.521 108ZM113.221 108L112.231 108.141L112.354 109H113.221V108ZM108.271 73.5V74.5H109.425L109.261 73.3578L108.271 73.5ZM100.471 19.2L101.461 19.0578L101.338 18.2H100.471V19.2ZM100.171 19.2V18.2H99.3045L99.1812 19.0578L100.171 19.2ZM92.3711 73.5L91.3813 73.3578L91.2172 74.5H92.3711V73.5ZM110.821 90.2H89.8211V92.2H110.821V90.2ZM88.8311 91.0586L86.4312 107.859L88.411 108.141L90.811 91.3414L88.8311 91.0586ZM87.4211 107H66.1211V109H87.4211V107ZM67.1072 108.166L84.9572 2.2662L82.985 1.93378L65.135 107.834L67.1072 108.166ZM83.9711 3.09999H116.671V1.09999H83.9711V3.09999ZM115.685 2.2662L133.535 108.166L135.507 107.834L117.657 1.93378L115.685 2.2662ZM134.521 107H113.221V109H134.521V107ZM114.211 107.859L111.811 91.0586L109.831 91.3414L112.231 108.141L114.211 107.859ZM109.261 73.3578L101.461 19.0578L99.4813 19.3422L107.281 73.6422L109.261 73.3578ZM100.471 18.2H100.171V20.2H100.471V18.2ZM99.1812 19.0578L91.3813 73.3578L93.3609 73.6422L101.161 19.3422L99.1812 19.0578ZM92.3711 74.5H108.271V72.5H92.3711V74.5ZM167.072 106.5L166.609 107.386L166.617 107.39L167.072 106.5ZM157.622 96.75L156.694 97.1214L156.702 97.142L156.711 97.1622L157.622 96.75ZM156.122 92.55L155.144 92.7595L155.154 92.8023L155.166 92.8441L156.122 92.55ZM155.522 86.25L154.523 86.2845L154.523 86.2857L155.522 86.25ZM155.372 75.75V74.75H154.372V75.75H155.372ZM177.722 75.75H178.722V74.75H177.722V75.75ZM177.872 84.75L176.874 84.8026L176.874 84.8055L177.872 84.75ZM178.472 88.65L177.536 89.0011L177.542 89.018L177.549 89.0346L178.472 88.65ZM188.372 91.5L188.819 92.3944L188.854 92.3773L188.887 92.3575L188.372 91.5ZM190.622 88.95L189.728 88.5028L189.72 88.5193L189.712 88.5362L190.622 88.95ZM191.072 86.25L190.075 86.1733L190.072 86.2116V86.25H191.072ZM190.922 74.4L189.926 74.483L189.929 74.5239L189.936 74.5644L190.922 74.4ZM190.172 70.95L191.112 70.6083L191.092 70.5542L191.067 70.5028L190.172 70.95ZM187.622 67.8L188.255 67.026L187.622 67.8ZM183.422 65.25L182.975 66.1444L182.986 66.1497L182.996 66.1548L183.422 65.25ZM178.322 62.85L178.728 61.9362L178.719 61.9322L178.71 61.9284L178.322 62.85ZM175.472 61.65L175.017 62.5402L175.05 62.5572L175.084 62.5716L175.472 61.65ZM164.822 55.05L164.191 55.8252L164.197 55.8308L164.204 55.8363L164.822 55.05ZM158.822 47.4L157.903 47.7939L157.906 47.8015L157.91 47.8091L158.822 47.4ZM156.872 40.35L155.879 40.4646L155.881 40.4834L155.884 40.5021L156.872 40.35ZM156.872 19.65L157.862 19.7914L157.863 19.7851L156.872 19.65ZM158.822 13.2L159.725 13.6299L159.729 13.6211L159.733 13.6122L158.822 13.2ZM167.972 3.59999L168.436 4.48586L168.444 4.48178L167.972 3.59999ZM199.922 3.3L199.475 4.19447L199.483 4.19857L199.922 3.3ZM209.222 12.75L208.311 13.1622L208.316 13.1729L209.222 12.75ZM210.722 17.1L209.744 17.3095L209.746 17.3172L209.748 17.3249L210.722 17.1ZM211.322 23.25L210.323 23.2857L210.323 23.287L211.322 23.25ZM211.472 33.45V34.45H212.472V33.45H211.472ZM190.022 33.45H189.022V34.45H190.022V33.45ZM189.872 24.75L188.874 24.8026L188.874 24.8055L189.872 24.75ZM189.272 20.7L190.209 20.3489L190.201 20.3273L190.191 20.3061L189.272 20.7ZM180.122 18.45L180.608 19.3242L180.622 19.3161L180.637 19.3075L180.122 18.45ZM178.172 20.7L177.244 20.3286L177.233 20.3559L177.224 20.3838L178.172 20.7ZM177.722 23.25L176.726 23.1595L176.722 23.2046V23.25H177.722ZM177.872 33.75L176.876 33.833L176.88 33.8813L176.888 33.9289L177.872 33.75ZM178.772 36.9L177.844 37.2714L177.854 37.2974L177.866 37.3229L178.772 36.9ZM182.222 40.65L181.692 41.498L181.712 41.5102L181.732 41.5216L182.222 40.65ZM189.722 44.1L190.133 43.1881L190.118 43.1815L190.103 43.1753L189.722 44.1ZM192.722 45.45L193.14 44.5415L193.133 44.5381L192.722 45.45ZM204.572 52.2L203.968 52.9967L203.983 53.0083L203.999 53.0192L204.572 52.2ZM211.022 60L210.1 60.3867L210.106 60.4004L210.112 60.4138L211.022 60ZM212.972 67.05L213.965 66.9309L212.972 67.05ZM212.972 90L213.963 90.1351L213.964 90.1293L212.972 90ZM211.172 96.45L212.083 96.8638L212.087 96.8539L212.091 96.8439L211.172 96.45ZM201.272 106.5L200.825 105.606L201.272 106.5ZM184.172 108.95C177.376 108.95 171.845 107.816 167.527 105.61L166.617 107.39C171.3 109.784 177.169 110.95 184.172 110.95V108.95ZM167.536 105.614C163.317 103.409 160.334 100.318 158.533 96.3378L156.711 97.1622C158.711 101.582 162.027 104.991 166.609 107.386L167.536 105.614ZM158.551 96.3786C157.959 94.8994 157.469 93.5255 157.078 92.2559L155.166 92.8441C155.576 94.1745 156.085 95.6006 156.694 97.1214L158.551 96.3786ZM157.1 92.3405C156.819 91.0289 156.621 89 156.522 86.2143L154.523 86.2857C154.623 89.1 154.826 91.2711 155.144 92.7595L157.1 92.3405ZM156.522 86.2155C156.422 83.3306 156.372 79.8428 156.372 75.75H154.372C154.372 79.8572 154.422 83.3694 154.523 86.2845L156.522 86.2155ZM155.372 76.75H177.722V74.75H155.372V76.75ZM176.722 75.75C176.722 79.8523 176.772 82.8746 176.874 84.8026L178.871 84.6974C178.772 82.8254 178.722 79.8477 178.722 75.75H176.722ZM176.874 84.8055C176.975 86.6202 177.179 88.0498 177.536 89.0011L179.409 88.2989C179.165 87.6502 178.97 86.4798 178.871 84.6945L176.874 84.8055ZM177.549 89.0346C178.124 90.4152 179.024 91.4927 180.255 92.213C181.473 92.9261 182.948 93.25 184.622 93.25V91.25C183.197 91.25 182.097 90.9739 181.265 90.487C180.445 90.0073 179.82 89.2848 179.395 88.2654L177.549 89.0346ZM184.622 93.25C186.227 93.25 187.642 92.9834 188.819 92.3944L187.925 90.6056C187.103 91.0166 186.018 91.25 184.622 91.25V93.25ZM188.887 92.3575C190.067 91.6492 190.952 90.6413 191.533 89.3638L189.712 88.5362C189.293 89.4587 188.677 90.1508 187.858 90.6425L188.887 92.3575ZM191.517 89.3972C191.921 88.5882 192.072 87.5011 192.072 86.25H190.072C190.072 87.3989 189.923 88.1117 189.728 88.5028L191.517 89.3972ZM192.069 86.3267C192.172 84.987 192.222 83.0058 192.222 80.4H190.222C190.222 82.9942 190.172 84.913 190.075 86.1733L192.069 86.3267ZM192.222 80.4C192.222 77.5971 192.123 75.5245 191.909 74.2356L189.936 74.5644C190.121 75.6755 190.222 77.6029 190.222 80.4H192.222ZM191.919 74.317C191.812 73.0311 191.543 71.794 191.112 70.6083L189.232 71.2917C189.601 72.306 189.833 73.3689 189.926 74.483L191.919 74.317ZM191.067 70.5028C190.4 69.1693 189.458 68.0099 188.255 67.026L186.989 68.574C187.987 69.3901 188.745 70.3307 189.278 71.3972L191.067 70.5028ZM188.255 67.026C187.075 66.0605 185.6 65.1696 183.848 64.3452L182.996 66.1548C184.644 66.9304 185.969 67.7395 186.989 68.574L188.255 67.026ZM183.869 64.3556C182.255 63.5482 180.541 62.7417 178.728 61.9362L177.916 63.7638C179.704 64.5583 181.39 65.3518 182.975 66.1444L183.869 64.3556ZM178.71 61.9284L175.86 60.7284L175.084 62.5716L177.934 63.7716L178.71 61.9284ZM175.928 60.7598C171.666 58.5795 168.175 56.4127 165.44 54.2637L164.204 55.8363C167.069 58.0873 170.678 60.3205 175.017 62.5402L175.928 60.7598ZM165.454 54.2748C162.863 52.1637 160.965 49.7354 159.735 46.9909L157.91 47.8091C159.279 50.8646 161.382 53.5363 164.191 55.8252L165.454 54.2748ZM159.741 47.0061C158.879 44.9941 158.25 42.727 157.861 40.1979L155.884 40.5021C156.295 43.173 156.965 45.6059 157.903 47.7939L159.741 47.0061ZM157.866 40.2354C157.572 37.6926 157.422 34.0376 157.422 29.25H155.422C155.422 34.0624 155.572 37.8074 155.879 40.4646L157.866 40.2354ZM157.422 29.25C157.422 24.9596 157.573 21.8181 157.862 19.7914L155.882 19.5086C155.572 21.6819 155.422 24.9404 155.422 29.25H157.422ZM157.863 19.7851C158.148 17.6921 158.767 15.6412 159.725 13.6299L157.919 12.7701C156.877 14.9588 156.196 17.2079 155.881 19.5149L157.863 19.7851ZM159.733 13.6122C161.539 9.6217 164.428 6.58545 168.436 4.48582L167.508 2.71416C163.117 5.01454 159.906 8.37829 157.911 12.7878L159.733 13.6122ZM168.444 4.48178C172.559 2.28091 177.784 1.14999 184.172 1.14999V-0.850006C177.56 -0.850006 171.986 0.319078 167.501 2.71821L168.444 4.48178ZM184.172 1.14999C190.368 1.14999 195.453 2.1834 199.475 4.19442L200.369 2.40557C195.992 0.216589 190.577 -0.850006 184.172 -0.850006V1.14999ZM199.483 4.19857C203.583 6.2006 206.511 9.18296 208.311 13.1622L210.133 12.3378C208.133 7.91703 204.862 4.5994 200.361 2.40143L199.483 4.19857ZM208.316 13.1729C208.989 14.615 209.462 15.9935 209.744 17.3095L211.7 16.8905C211.382 15.4065 210.855 13.885 210.128 12.3271L208.316 13.1729ZM209.748 17.3249C210.025 18.5262 210.223 20.4958 210.323 23.2857L212.322 23.2143C212.221 20.4042 212.019 18.2737 211.697 16.8751L209.748 17.3249ZM210.323 23.287C210.422 25.9701 210.472 29.3567 210.472 33.45H212.472C212.472 29.3433 212.422 25.9299 212.322 23.213L210.323 23.287ZM211.472 32.45H190.022V34.45H211.472V32.45ZM191.022 33.45C191.022 29.4482 190.972 26.5243 190.871 24.6945L188.874 24.8055C188.972 26.5756 189.022 29.4518 189.022 33.45H191.022ZM190.871 24.6974C190.77 22.7892 190.567 21.3046 190.209 20.3489L188.336 21.0511C188.578 21.6954 188.774 22.9108 188.874 24.8026L190.871 24.6974ZM190.191 20.3061C189.662 19.0711 188.833 18.1089 187.703 17.4678C186.588 16.8345 185.242 16.55 183.722 16.55V18.55C185.002 18.55 185.982 18.7904 186.716 19.2072C187.437 19.6161 187.982 20.2289 188.353 21.0939L190.191 20.3061ZM183.722 16.55C182.178 16.55 180.792 16.8821 179.608 17.5925L180.637 19.3075C181.453 18.8179 182.467 18.55 183.722 18.55V16.55ZM179.637 17.5758C178.526 18.193 177.725 19.1257 177.244 20.3286L179.101 21.0714C179.42 20.2743 179.919 19.707 180.608 19.3242L179.637 17.5758ZM177.224 20.3838C176.988 21.0916 176.829 22.0305 176.726 23.1595L178.718 23.3405C178.816 22.2695 178.957 21.5084 179.121 21.0162L177.224 20.3838ZM176.722 23.25C176.722 23.252 176.722 23.2539 176.722 23.2559C176.722 23.2578 176.722 23.2598 176.722 23.2617C176.722 23.2637 176.722 23.2657 176.722 23.2676C176.722 23.2696 176.722 23.2716 176.722 23.2735C176.722 23.2755 176.722 23.2775 176.722 23.2795C176.722 23.2814 176.722 23.2834 176.722 23.2854C176.722 23.2874 176.722 23.2894 176.722 23.2914C176.722 23.2933 176.722 23.2953 176.722 23.2973C176.722 23.2993 176.722 23.3013 176.722 23.3033C176.722 23.3053 176.722 23.3073 176.722 23.3093C176.722 23.3113 176.722 23.3133 176.722 23.3153C176.722 23.3173 176.722 23.3193 176.722 23.3213C176.722 23.3233 176.722 23.3253 176.722 23.3273C176.722 23.3293 176.722 23.3314 176.722 23.3334C176.722 23.3354 176.722 23.3374 176.722 23.3394C176.722 23.3415 176.722 23.3435 176.722 23.3455C176.722 23.3475 176.722 23.3496 176.722 23.3516C176.722 23.3536 176.722 23.3557 176.722 23.3577C176.722 23.3597 176.722 23.3618 176.722 23.3638C176.722 23.3658 176.722 23.3679 176.722 23.3699C176.722 23.372 176.722 23.374 176.722 23.3761C176.722 23.3781 176.722 23.3802 176.722 23.3822C176.722 23.3843 176.722 23.3863 176.722 23.3884C176.722 23.3905 176.722 23.3925 176.722 23.3946C176.722 23.3966 176.722 23.3987 176.722 23.4008C176.722 23.4028 176.722 23.4049 176.722 23.407C176.722 23.4091 176.722 23.4111 176.722 23.4132C176.722 23.4153 176.722 23.4174 176.722 23.4194C176.722 23.4215 176.722 23.4236 176.722 23.4257C176.722 23.4278 176.722 23.4299 176.722 23.432C176.722 23.4341 176.722 23.4361 176.722 23.4382C176.722 23.4403 176.722 23.4424 176.722 23.4445C176.722 23.4466 176.722 23.4487 176.722 23.4508C176.722 23.4529 176.722 23.455 176.722 23.4572C176.722 23.4593 176.722 23.4614 176.722 23.4635C176.722 23.4656 176.722 23.4677 176.722 23.4698C176.722 23.472 176.722 23.4741 176.722 23.4762C176.722 23.4783 176.722 23.4804 176.722 23.4826C176.722 23.4847 176.722 23.4868 176.722 23.489C176.722 23.4911 176.722 23.4932 176.722 23.4954C176.722 23.4975 176.722 23.4996 176.722 23.5018C176.722 23.5039 176.722 23.5061 176.722 23.5082C176.722 23.5104 176.722 23.5125 176.722 23.5146C176.722 23.5168 176.722 23.519 176.722 23.5211C176.722 23.5233 176.722 23.5254 176.722 23.5276C176.722 23.5297 176.722 23.5319 176.722 23.5341C176.722 23.5362 176.722 23.5384 176.722 23.5406C176.722 23.5427 176.722 23.5449 176.722 23.5471C176.722 23.5492 176.722 23.5514 176.722 23.5536C176.722 23.5558 176.722 23.558 176.722 23.5601C176.722 23.5623 176.722 23.5645 176.722 23.5667C176.722 23.5689 176.722 23.5711 176.722 23.5733C176.722 23.5754 176.722 23.5776 176.722 23.5798C176.722 23.582 176.722 23.5842 176.722 23.5864C176.722 23.5886 176.722 23.5908 176.722 23.593C176.722 23.5952 176.722 23.5975 176.722 23.5997C176.722 23.6019 176.722 23.6041 176.722 23.6063C176.722 23.6085 176.722 23.6107 176.722 23.6129C176.722 23.6152 176.722 23.6174 176.722 23.6196C176.722 23.6218 176.722 23.6241 176.722 23.6263C176.722 23.6285 176.722 23.6307 176.722 23.633C176.722 23.6352 176.722 23.6374 176.722 23.6397C176.722 23.6419 176.722 23.6442 176.722 23.6464C176.722 23.6486 176.722 23.6509 176.722 23.6531C176.722 23.6554 176.722 23.6576 176.722 23.6599C176.722 23.6621 176.722 23.6644 176.722 23.6666C176.722 23.6689 176.722 23.6711 176.722 23.6734C176.722 23.6757 176.722 23.6779 176.722 23.6802C176.722 23.6825 176.722 23.6847 176.722 23.687C176.722 23.6893 176.722 23.6915 176.722 23.6938C176.722 23.6961 176.722 23.6984 176.722 23.7006C176.722 23.7029 176.722 23.7052 176.722 23.7075C176.722 23.7098 176.722 23.712 176.722 23.7143C176.722 23.7166 176.722 23.7189 176.722 23.7212C176.722 23.7235 176.722 23.7258 176.722 23.7281C176.722 23.7304 176.722 23.7327 176.722 23.735C176.722 23.7373 176.722 23.7396 176.722 23.7419C176.722 23.7442 176.722 23.7465 176.722 23.7488C176.722 23.7511 176.722 23.7534 176.722 23.7557C176.722 23.7581 176.722 23.7604 176.722 23.7627C176.722 23.765 176.722 23.7673 176.722 23.7697C176.722 23.772 176.722 23.7743 176.722 23.7766C176.722 23.779 176.722 23.7813 176.722 23.7836C176.722 23.786 176.722 23.7883 176.722 23.7906C176.722 23.793 176.722 23.7953 176.722 23.7977C176.722 23.8 176.722 23.8023 176.722 23.8047C176.722 23.807 176.722 23.8094 176.722 23.8117C176.722 23.8141 176.722 23.8164 176.722 23.8188C176.722 23.8212 176.722 23.8235 176.722 23.8259C176.722 23.8282 176.722 23.8306 176.722 23.833C176.722 23.8353 176.722 23.8377 176.722 23.8401C176.722 23.8424 176.722 23.8448 176.722 23.8472C176.722 23.8496 176.722 23.8519 176.722 23.8543C176.722 23.8567 176.722 23.8591 176.722 23.8615C176.722 23.8638 176.722 23.8662 176.722 23.8686C176.722 23.871 176.722 23.8734 176.722 23.8758C176.722 23.8782 176.722 23.8806 176.722 23.883C176.722 23.8854 176.722 23.8878 176.722 23.8902C176.722 23.8926 176.722 23.895 176.722 23.8974C176.722 23.8998 176.722 23.9022 176.722 23.9046C176.722 23.907 176.722 23.9094 176.722 23.9118C176.722 23.9143 176.722 23.9167 176.722 23.9191C176.722 23.9215 176.722 23.9239 176.722 23.9264C176.722 23.9288 176.722 23.9312 176.722 23.9336C176.722 23.9361 176.722 23.9385 176.722 23.9409C176.722 23.9434 176.722 23.9458 176.722 23.9482C176.722 23.9507 176.722 23.9531 176.722 23.9556C176.722 23.958 176.722 23.9605 176.722 23.9629C176.722 23.9654 176.722 23.9678 176.722 23.9703C176.722 23.9727 176.722 23.9752 176.722 23.9776C176.722 23.9801 176.722 23.9825 176.722 23.985C176.722 23.9875 176.722 23.9899 176.722 23.9924C176.722 23.9948 176.722 23.9973 176.722 23.9998C176.722 24.0023 176.722 24.0047 176.722 24.0072C176.722 24.0097 176.722 24.0122 176.722 24.0146C176.722 24.0171 176.722 24.0196 176.722 24.0221C176.722 24.0246 176.722 24.0271 176.722 24.0295C176.722 24.032 176.722 24.0345 176.722 24.037C176.722 24.0395 176.722 24.042 176.722 24.0445C176.722 24.047 176.722 24.0495 176.722 24.052C176.722 24.0545 176.722 24.057 176.722 24.0595C176.722 24.062 176.722 24.0645 176.722 24.067C176.722 24.0696 176.722 24.0721 176.722 24.0746C176.722 24.0771 176.722 24.0796 176.722 24.0821C176.722 24.0847 176.722 24.0872 176.722 24.0897C176.722 24.0922 176.722 24.0948 176.722 24.0973C176.722 24.0998 176.722 24.1024 176.722 24.1049C176.722 24.1074 176.722 24.11 176.722 24.1125C176.722 24.115 176.722 24.1176 176.722 24.1201C176.722 24.1227 176.722 24.1252 176.722 24.1278C176.722 24.1303 176.722 24.1329 176.722 24.1354C176.722 24.138 176.722 24.1405 176.722 24.1431C176.722 24.1456 176.722 24.1482 176.722 24.1508C176.722 24.1533 176.722 24.1559 176.722 24.1585C176.722 24.161 176.722 24.1636 176.722 24.1662C176.722 24.1687 176.722 24.1713 176.722 24.1739C176.722 24.1765 176.722 24.179 176.722 24.1816C176.722 24.1842 176.722 24.1868 176.722 24.1894C176.722 24.1919 176.722 24.1945 176.722 24.1971C176.722 24.1997 176.722 24.2023 176.722 24.2049C176.722 24.2075 176.722 24.2101 176.722 24.2127C176.722 24.2153 176.722 24.2179 176.722 24.2205C176.722 24.2231 176.722 24.2257 176.722 24.2283C176.722 24.2309 176.722 24.2335 176.722 24.2361C176.722 24.2387 176.722 24.2414 176.722 24.244C176.722 24.2466 176.722 24.2492 176.722 24.2518C176.722 24.2545 176.722 24.2571 176.722 24.2597C176.722 24.2623 176.722 24.265 176.722 24.2676C176.722 24.2702 176.722 24.2729 176.722 24.2755C176.722 24.2781 176.722 24.2808 176.722 24.2834C176.722 24.286 176.722 24.2887 176.722 24.2913C176.722 24.294 176.722 24.2966 176.722 24.2993C176.722 24.3019 176.722 24.3046 176.722 24.3072C176.722 24.3099 176.722 24.3125 176.722 24.3152C176.722 24.3178 176.722 24.3205 176.722 24.3232C176.722 24.3258 176.722 24.3285 176.722 24.3312C176.722 24.3338 176.722 24.3365 176.722 24.3392C176.722 24.3418 176.722 24.3445 176.722 24.3472C176.722 24.3499 176.722 24.3526 176.722 24.3552C176.722 24.3579 176.722 24.3606 176.722 24.3633C176.722 24.366 176.722 24.3687 176.722 24.3713C176.722 24.374 176.722 24.3767 176.722 24.3794C176.722 24.3821 176.722 24.3848 176.722 24.3875C176.722 24.3902 176.722 24.3929 176.722 24.3956C176.722 24.3983 176.722 24.401 176.722 24.4037C176.722 24.4064 176.722 24.4092 176.722 24.4119C176.722 24.4146 176.722 24.4173 176.722 24.42C176.722 24.4227 176.722 24.4254 176.722 24.4282C176.722 24.4309 176.722 24.4336 176.722 24.4363C176.722 24.4391 176.722 24.4418 176.722 24.4445C176.722 24.4473 176.722 24.45 176.722 24.4527C176.722 24.4555 176.722 24.4582 176.722 24.4609C176.722 24.4637 176.722 24.4664 176.722 24.4692C176.722 24.4719 176.722 24.4747 176.722 24.4774C176.722 24.4802 176.722 24.4829 176.722 24.4857C176.722 24.4884 176.722 24.4912 176.722 24.4939C176.722 24.4967 176.722 24.4995 176.722 24.5022C176.722 24.505 176.722 24.5078 176.722 24.5105C176.722 24.5133 176.722 24.5161 176.722 24.5188C176.722 24.5216 176.722 24.5244 176.722 24.5272C176.722 24.5299 176.722 24.5327 176.722 24.5355C176.722 24.5383 176.722 24.5411 176.722 24.5438C176.722 24.5466 176.722 24.5494 176.722 24.5522C176.722 24.555 176.722 24.5578 176.722 24.5606C176.722 24.5634 176.722 24.5662 176.722 24.569C176.722 24.5718 176.722 24.5746 176.722 24.5774C176.722 24.5802 176.722 24.583 176.722 24.5858C176.722 24.5886 176.722 24.5914 176.722 24.5942C176.722 24.5971 176.722 24.5999 176.722 24.6027C176.722 24.6055 176.722 24.6083 176.722 24.6112C176.722 24.614 176.722 24.6168 176.722 24.6196C176.722 24.6225 176.722 24.6253 176.722 24.6281C176.722 24.631 176.722 24.6338 176.722 24.6366C176.722 24.6395 176.722 24.6423 176.722 24.6451C176.722 24.648 176.722 24.6508 176.722 24.6537C176.722 24.6565 176.722 24.6594 176.722 24.6622C176.722 24.6651 176.722 24.6679 176.722 24.6708C176.722 24.6736 176.722 24.6765 176.722 24.6793C176.722 24.6822 176.722 24.6851 176.722 24.6879C176.722 24.6908 176.722 24.6937 176.722 24.6965C176.722 24.6994 176.722 24.7023 176.722 24.7051C176.722 24.708 176.722 24.7109 176.722 24.7138C176.722 24.7166 176.722 24.7195 176.722 24.7224C176.722 24.7253 176.722 24.7282 176.722 24.7311C176.722 24.734 176.722 24.7368 176.722 24.7397C176.722 24.7426 176.722 24.7455 176.722 24.7484C176.722 24.7513 176.722 24.7542 176.722 24.7571C176.722 24.76 176.722 24.7629 176.722 24.7658C176.722 24.7687 176.722 24.7716 176.722 24.7745C176.722 24.7775 176.722 24.7804 176.722 24.7833C176.722 24.7862 176.722 24.7891 176.722 24.792C176.722 24.7949 176.722 24.7979 176.722 24.8008C176.722 24.8037 176.722 24.8066 176.722 24.8096C176.722 24.8125 176.722 24.8154 176.722 24.8184C176.722 24.8213 176.722 24.8242 176.722 24.8272C176.722 24.8301 176.722 24.833 176.722 24.836C176.722 24.8389 176.722 24.8419 176.722 24.8448C176.722 24.8478 176.722 24.8507 176.722 24.8537C176.722 24.8566 176.722 24.8596 176.722 24.8625C176.722 24.8655 176.722 24.8684 176.722 24.8714C176.722 24.8744 176.722 24.8773 176.722 24.8803C176.722 24.8833 176.722 24.8862 176.722 24.8892C176.722 24.8922 176.722 24.8951 176.722 24.8981C176.722 24.9011 176.722 24.9041 176.722 24.907C176.722 24.91 176.722 24.913 176.722 24.916C176.722 24.919 176.722 24.9219 176.722 24.9249C176.722 24.9279 176.722 24.9309 176.722 24.9339C176.722 24.9369 176.722 24.9399 176.722 24.9429C176.722 24.9459 176.722 24.9489 176.722 24.9519C176.722 24.9549 176.722 24.9579 176.722 24.9609C176.722 24.9639 176.722 24.9669 176.722 24.9699C176.722 24.9729 176.722 24.9759 176.722 24.979C176.722 24.982 176.722 24.985 176.722 24.988C176.722 24.991 176.722 24.994 176.722 24.9971C176.722 25.0001 176.722 25.0031 176.722 25.0061C176.722 25.0092 176.722 25.0122 176.722 25.0152C176.722 25.0183 176.722 25.0213 176.722 25.0244C176.722 25.0274 176.722 25.0304 176.722 25.0335C176.722 25.0365 176.722 25.0396 176.722 25.0426C176.722 25.0457 176.722 25.0487 176.722 25.0518C176.722 25.0548 176.722 25.0579 176.722 25.0609C176.722 25.064 176.722 25.067 176.722 25.0701C176.722 25.0732 176.722 25.0762 176.722 25.0793C176.722 25.0823 176.722 25.0854 176.722 25.0885C176.722 25.0916 176.722 25.0946 176.722 25.0977C176.722 25.1008 176.722 25.1039 176.722 25.1069C176.722 25.11 176.722 25.1131 176.722 25.1162C176.722 25.1193 176.722 25.1223 176.722 25.1254C176.722 25.1285 176.722 25.1316 176.722 25.1347C176.722 25.1378 176.722 25.1409 176.722 25.144C176.722 25.1471 176.722 25.1502 176.722 25.1533C176.722 25.1564 176.722 25.1595 176.722 25.1626C176.722 25.1657 176.722 25.1688 176.722 25.1719C176.722 25.175 176.722 25.1782 176.722 25.1813C176.722 25.1844 176.722 25.1875 176.722 25.1906C176.722 25.1937 176.722 25.1969 176.722 25.2C176.722 25.2031 176.722 25.2062 176.722 25.2094C176.722 25.2125 176.722 25.2156 176.722 25.2188C176.722 25.2219 176.722 25.225 176.722 25.2282C176.722 25.2313 176.722 25.2345 176.722 25.2376C176.722 25.2407 176.722 25.2439 176.722 25.247C176.722 25.2502 176.722 25.2533 176.722 25.2565C176.722 25.2596 176.722 25.2628 176.722 25.266C176.722 25.2691 176.722 25.2723 176.722 25.2754C176.722 25.2786 176.722 25.2818 176.722 25.2849C176.722 25.2881 176.722 25.2913 176.722 25.2944C176.722 25.2976 176.722 25.3008 176.722 25.304C176.722 25.3071 176.722 25.3103 176.722 25.3135C176.722 25.3167 176.722 25.3198 176.722 25.323C176.722 25.3262 176.722 25.3294 176.722 25.3326C176.722 25.3358 176.722 25.339 176.722 25.3422C176.722 25.3454 176.722 25.3486 176.722 25.3518C176.722 25.355 176.722 25.3582 176.722 25.3614C176.722 25.3646 176.722 25.3678 176.722 25.371C176.722 25.3742 176.722 25.3774 176.722 25.3806C176.722 25.3838 176.722 25.387 176.722 25.3902C176.722 25.3935 176.722 25.3967 176.722 25.3999C176.722 25.4031 176.722 25.4063 176.722 25.4096C176.722 25.4128 176.722 25.416 176.722 25.4193C176.722 25.4225 176.722 25.4257 176.722 25.429C176.722 25.4322 176.722 25.4354 176.722 25.4387C176.722 25.4419 176.722 25.4451 176.722 25.4484C176.722 25.4516 176.722 25.4549 176.722 25.4581C176.722 25.4614 176.722 25.4646 176.722 25.4679C176.722 25.4711 176.722 25.4744 176.722 25.4776C176.722 25.4809 176.722 25.4842 176.722 25.4874C176.722 25.4907 176.722 25.494 176.722 25.4972C176.722 25.5005 176.722 25.5038 176.722 25.507C176.722 25.5103 176.722 25.5136 176.722 25.5168C176.722 25.5201 176.722 25.5234 176.722 25.5267C176.722 25.53 176.722 25.5332 176.722 25.5365C176.722 25.5398 176.722 25.5431 176.722 25.5464C176.722 25.5497 176.722 25.553 176.722 25.5563C176.722 25.5596 176.722 25.5629 176.722 25.5662C176.722 25.5695 176.722 25.5728 176.722 25.5761C176.722 25.5794 176.722 25.5827 176.722 25.586C176.722 25.5893 176.722 25.5926 176.722 25.5959C176.722 25.5992 176.722 25.6025 176.722 25.6059C176.722 25.6092 176.722 25.6125 176.722 25.6158C176.722 25.6191 176.722 25.6225 176.722 25.6258C176.722 25.6291 176.722 25.6324 176.722 25.6358C176.722 25.6391 176.722 25.6424 176.722 25.6458C176.722 25.6491 176.722 25.6525 176.722 25.6558C176.722 25.6591 176.722 25.6625 176.722 25.6658C176.722 25.6692 176.722 25.6725 176.722 25.6759C176.722 25.6792 176.722 25.6826 176.722 25.6859C176.722 25.6893 176.722 25.6926 176.722 25.696C176.722 25.6993 176.722 25.7027 176.722 25.7061C176.722 25.7094 176.722 25.7128 176.722 25.7162C176.722 25.7195 176.722 25.7229 176.722 25.7263C176.722 25.7296 176.722 25.733 176.722 25.7364C176.722 25.7398 176.722 25.7431 176.722 25.7465C176.722 25.7499 176.722 25.7533 176.722 25.7567C176.722 25.7601 176.722 25.7635 176.722 25.7668C176.722 25.7702 176.722 25.7736 176.722 25.777C176.722 25.7804 176.722 25.7838 176.722 25.7872C176.722 25.7906 176.722 25.794 176.722 25.7974C176.722 25.8008 176.722 25.8042 176.722 25.8076C176.722 25.8111 176.722 25.8145 176.722 25.8179C176.722 25.8213 176.722 25.8247 176.722 25.8281C176.722 25.8315 176.722 25.835 176.722 25.8384C176.722 25.8418 176.722 25.8452 176.722 25.8487C176.722 25.8521 176.722 25.8555 176.722 25.8589C176.722 25.8624 176.722 25.8658 176.722 25.8692C176.722 25.8727 176.722 25.8761 176.722 25.8796C176.722 25.883 176.722 25.8864 176.722 25.8899C176.722 25.8933 176.722 25.8968 176.722 25.9002C176.722 25.9037 176.722 25.9071 176.722 25.9106C176.722 25.914 176.722 25.9175 176.722 25.921C176.722 25.9244 176.722 25.9279 176.722 25.9313C176.722 25.9348 176.722 25.9383 176.722 25.9417C176.722 25.9452 176.722 25.9487 176.722 25.9522C176.722 25.9556 176.722 25.9591 176.722 25.9626C176.722 25.9661 176.722 25.9695 176.722 25.973C176.722 25.9765 176.722 25.98 176.722 25.9835C176.722 25.987 176.722 25.9905 176.722 25.9939C176.722 25.9974 176.722 26.0009 176.722 26.0044C176.722 26.0079 176.722 26.0114 176.722 26.0149C176.722 26.0184 176.722 26.0219 176.722 26.0254C176.722 26.0289 176.722 26.0324 176.722 26.0359C176.722 26.0395 176.722 26.043 176.722 26.0465C176.722 26.05 176.722 26.0535 176.722 26.057C176.722 26.0606 176.722 26.0641 176.722 26.0676C176.722 26.0711 176.722 26.0746 176.722 26.0782C176.722 26.0817 176.722 26.0852 176.722 26.0888C176.722 26.0923 176.722 26.0958 176.722 26.0994C176.722 26.1029 176.722 26.1064 176.722 26.11C176.722 26.1135 176.722 26.1171 176.722 26.1206C176.722 26.1242 176.722 26.1277 176.722 26.1313C176.722 26.1348 176.722 26.1384 176.722 26.1419C176.722 26.1455 176.722 26.149 176.722 26.1526C176.722 26.1562 176.722 26.1597 176.722 26.1633C176.722 26.1668 176.722 26.1704 176.722 26.174C176.722 26.1775 176.722 26.1811 176.722 26.1847C176.722 26.1883 176.722 26.1918 176.722 26.1954C176.722 26.199 176.722 26.2026 176.722 26.2062C176.722 26.2097 176.722 26.2133 176.722 26.2169C176.722 26.2205 176.722 26.2241 176.722 26.2277C176.722 26.2313 176.722 26.2349 176.722 26.2385C176.722 26.2421 176.722 26.2457 176.722 26.2493C176.722 26.2529 176.722 26.2565 176.722 26.2601C176.722 26.2637 176.722 26.2673 176.722 26.2709C176.722 26.2745 176.722 26.2781 176.722 26.2817C176.722 26.2854 176.722 26.289 176.722 26.2926C176.722 26.2962 176.722 26.2998 176.722 26.3035C176.722 26.3071 176.722 26.3107 176.722 26.3143C176.722 26.318 176.722 26.3216 176.722 26.3252C176.722 26.3289 176.722 26.3325 176.722 26.3361C176.722 26.3398 176.722 26.3434 176.722 26.347C176.722 26.3507 176.722 26.3543 176.722 26.358C176.722 26.3616 176.722 26.3653 176.722 26.3689C176.722 26.3726 176.722 26.3762 176.722 26.3799C176.722 26.3835 176.722 26.3872 176.722 26.3909C176.722 26.3945 176.722 26.3982 176.722 26.4019C176.722 26.4055 176.722 26.4092 176.722 26.4129C176.722 26.4165 176.722 26.4202 176.722 26.4239C176.722 26.4275 176.722 26.4312 176.722 26.4349C176.722 26.4386 176.722 26.4423 176.722 26.4459C176.722 26.4496 176.722 26.4533 176.722 26.457C176.722 26.4607 176.722 26.4644 176.722 26.4681C176.722 26.4718 176.722 26.4755 176.722 26.4792C176.722 26.4829 176.722 26.4866 176.722 26.4903C176.722 26.494 176.722 26.4977 176.722 26.5014C176.722 26.5051 176.722 26.5088 176.722 26.5125C176.722 26.5162 176.722 26.5199 176.722 26.5236C176.722 26.5274 176.722 26.5311 176.722 26.5348C176.722 26.5385 176.722 26.5422 176.722 26.546C176.722 26.5497 176.722 26.5534 176.722 26.5571C176.722 26.5609 176.722 26.5646 176.722 26.5683C176.722 26.5721 176.722 26.5758 176.722 26.5795C176.722 26.5833 176.722 26.587 176.722 26.5908C176.722 26.5945 176.722 26.5983 176.722 26.602C176.722 26.6057 176.722 26.6095 176.722 26.6132C176.722 26.617 176.722 26.6208 176.722 26.6245C176.722 26.6283 176.722 26.632 176.722 26.6358C176.722 26.6395 176.722 26.6433 176.722 26.6471C176.722 26.6508 176.722 26.6546 176.722 26.6584C176.722 26.6622 176.722 26.6659 176.722 26.6697C176.722 26.6735 176.722 26.6773 176.722 26.681C176.722 26.6848 176.722 26.6886 176.722 26.6924C176.722 26.6962 176.722 26.6999 176.722 26.7037C176.722 26.7075 176.722 26.7113 176.722 26.7151C176.722 26.7189 176.722 26.7227 176.722 26.7265C176.722 26.7303 176.722 26.7341 176.722 26.7379C176.722 26.7417 176.722 26.7455 176.722 26.7493C176.722 26.7531 176.722 26.7569 176.722 26.7607C176.722 26.7646 176.722 26.7684 176.722 26.7722C176.722 26.776 176.722 26.7798 176.722 26.7836C176.722 26.7875 176.722 26.7913 176.722 26.7951C176.722 26.7989 176.722 26.8028 176.722 26.8066C176.722 26.8104 176.722 26.8143 176.722 26.8181C176.722 26.8219 176.722 26.8258 176.722 26.8296C176.722 26.8334 176.722 26.8373 176.722 26.8411C176.722 26.845 176.722 26.8488 176.722 26.8527C176.722 26.8565 176.722 26.8604 176.722 26.8642C176.722 26.8681 176.722 26.8719 176.722 26.8758C176.722 26.8796 176.722 26.8835 176.722 26.8874C176.722 26.8912 176.722 26.8951 176.722 26.8989C176.722 26.9028 176.722 26.9067 176.722 26.9106C176.722 26.9144 176.722 26.9183 176.722 26.9222C176.722 26.9261 176.722 26.9299 176.722 26.9338C176.722 26.9377 176.722 26.9416 176.722 26.9455C176.722 26.9493 176.722 26.9532 176.722 26.9571C176.722 26.961 176.722 26.9649 176.722 26.9688C176.722 26.9727 176.722 26.9766 176.722 26.9805C176.722 26.9844 176.722 26.9883 176.722 26.9922C176.722 26.9961 176.722 27 176.722 27.0039C176.722 27.0078 176.722 27.0117 176.722 27.0156C176.722 27.0195 176.722 27.0235 176.722 27.0274C176.722 27.0313 176.722 27.0352 176.722 27.0391C176.722 27.0431 176.722 27.047 176.722 27.0509C176.722 27.0548 176.722 27.0588 176.722 27.0627C176.722 27.0666 176.722 27.0706 176.722 27.0745C176.722 27.0784 176.722 27.0824 176.722 27.0863C176.722 27.0902 176.722 27.0942 176.722 27.0981C176.722 27.1021 176.722 27.106 176.722 27.11C176.722 27.1139 176.722 27.1179 176.722 27.1218C176.722 27.1258 176.722 27.1297 176.722 27.1337C176.722 27.1376 176.722 27.1416 176.722 27.1456C176.722 27.1495 176.722 27.1535 176.722 27.1575C176.722 27.1614 176.722 27.1654 176.722 27.1694C176.722 27.1733 176.722 27.1773 176.722 27.1813C176.722 27.1853 176.722 27.1893 176.722 27.1932C176.722 27.1972 176.722 27.2012 176.722 27.2052C176.722 27.2092 176.722 27.2132 176.722 27.2171C176.722 27.2211 176.722 27.2251 176.722 27.2291C176.722 27.2331 176.722 27.2371 176.722 27.2411C176.722 27.2451 176.722 27.2491 176.722 27.2531C176.722 27.2571 176.722 27.2611 176.722 27.2651C176.722 27.2691 176.722 27.2732 176.722 27.2772C176.722 27.2812 176.722 27.2852 176.722 27.2892C176.722 27.2932 176.722 27.2973 176.722 27.3013C176.722 27.3053 176.722 27.3093 176.722 27.3134C176.722 27.3174 176.722 27.3214 176.722 27.3254C176.722 27.3295 176.722 27.3335 176.722 27.3375C176.722 27.3416 176.722 27.3456 176.722 27.3497C176.722 27.3537 176.722 27.3577 176.722 27.3618C176.722 27.3658 176.722 27.3699 176.722 27.3739C176.722 27.378 176.722 27.382 176.722 27.3861C176.722 27.3901 176.722 27.3942 176.722 27.3982C176.722 27.4023 176.722 27.4064 176.722 27.4104C176.722 27.4145 176.722 27.4186 176.722 27.4226C176.722 27.4267 176.722 27.4308 176.722 27.4348C176.722 27.4389 176.722 27.443 176.722 27.4471C176.722 27.4511 176.722 27.4552 176.722 27.4593C176.722 27.4634 176.722 27.4675 176.722 27.4716C176.722 27.4756 176.722 27.4797 176.722 27.4838C176.722 27.4879 176.722 27.492 176.722 27.4961C176.722 27.5002 176.722 27.5043 176.722 27.5084C176.722 27.5125 176.722 27.5166 176.722 27.5207C176.722 27.5248 176.722 27.5289 176.722 27.533C176.722 27.5371 176.722 27.5412 176.722 27.5454C176.722 27.5495 176.722 27.5536 176.722 27.5577C176.722 27.5618 176.722 27.5659 176.722 27.5701C176.722 27.5742 176.722 27.5783 176.722 27.5824C176.722 27.5866 176.722 27.5907 176.722 27.5948C176.722 27.599 176.722 27.6031 176.722 27.6072C176.722 27.6114 176.722 27.6155 176.722 27.6196C176.722 27.6238 176.722 27.6279 176.722 27.6321C176.722 27.6362 176.722 27.6404 176.722 27.6445C176.722 27.6487 176.722 27.6528 176.722 27.657C176.722 27.6611 176.722 27.6653 176.722 27.6695C176.722 27.6736 176.722 27.6778 176.722 27.6819C176.722 27.6861 176.722 27.6903 176.722 27.6944C176.722 27.6986 176.722 27.7028 176.722 27.707C176.722 27.7111 176.722 27.7153 176.722 27.7195C176.722 27.7237 176.722 27.7278 176.722 27.732C176.722 27.7362 176.722 27.7404 176.722 27.7446C176.722 27.7488 176.722 27.7529 176.722 27.7571C176.722 27.7613 176.722 27.7655 176.722 27.7697C176.722 27.7739 176.722 27.7781 176.722 27.7823C176.722 27.7865 176.722 27.7907 176.722 27.7949C176.722 27.7991 176.722 27.8033 176.722 27.8075C176.722 27.8118 176.722 27.816 176.722 27.8202C176.722 27.8244 176.722 27.8286 176.722 27.8328C176.722 27.8371 176.722 27.8413 176.722 27.8455C176.722 27.8497 176.722 27.854 176.722 27.8582C176.722 27.8624 176.722 27.8666 176.722 27.8709C176.722 27.8751 176.722 27.8793 176.722 27.8836C176.722 27.8878 176.722 27.8921 176.722 27.8963C176.722 27.9005 176.722 27.9048 176.722 27.909C176.722 27.9133 176.722 27.9175 176.722 27.9218C176.722 27.926 176.722 27.9303 176.722 27.9345C176.722 27.9388 176.722 27.943 176.722 27.9473C176.722 27.9516 176.722 27.9558 176.722 27.9601C176.722 27.9644 176.722 27.9686 176.722 27.9729C176.722 27.9772 176.722 27.9814 176.722 27.9857C176.722 27.99 176.722 27.9943 176.722 27.9985C176.722 28.0028 176.722 28.0071 176.722 28.0114C176.722 28.0157 176.722 28.02 176.722 28.0242C176.722 28.0285 176.722 28.0328 176.722 28.0371C176.722 28.0414 176.722 28.0457 176.722 28.05H178.722C178.722 28.0457 178.722 28.0414 178.722 28.0371C178.722 28.0328 178.722 28.0285 178.722 28.0242C178.722 28.02 178.722 28.0157 178.722 28.0114C178.722 28.0071 178.722 28.0028 178.722 27.9985C178.722 27.9943 178.722 27.99 178.722 27.9857C178.722 27.9814 178.722 27.9772 178.722 27.9729C178.722 27.9686 178.722 27.9644 178.722 27.9601C178.722 27.9558 178.722 27.9516 178.722 27.9473C178.722 27.943 178.722 27.9388 178.722 27.9345C178.722 27.9303 178.722 27.926 178.722 27.9218C178.722 27.9175 178.722 27.9133 178.722 27.909C178.722 27.9048 178.722 27.9005 178.722 27.8963C178.722 27.8921 178.722 27.8878 178.722 27.8836C178.722 27.8793 178.722 27.8751 178.722 27.8709C178.722 27.8666 178.722 27.8624 178.722 27.8582C178.722 27.854 178.722 27.8497 178.722 27.8455C178.722 27.8413 178.722 27.8371 178.722 27.8328C178.722 27.8286 178.722 27.8244 178.722 27.8202C178.722 27.816 178.722 27.8118 178.722 27.8075C178.722 27.8033 178.722 27.7991 178.722 27.7949C178.722 27.7907 178.722 27.7865 178.722 27.7823C178.722 27.7781 178.722 27.7739 178.722 27.7697C178.722 27.7655 178.722 27.7613 178.722 27.7571C178.722 27.7529 178.722 27.7488 178.722 27.7446C178.722 27.7404 178.722 27.7362 178.722 27.732C178.722 27.7278 178.722 27.7237 178.722 27.7195C178.722 27.7153 178.722 27.7111 178.722 27.707C178.722 27.7028 178.722 27.6986 178.722 27.6944C178.722 27.6903 178.722 27.6861 178.722 27.6819C178.722 27.6778 178.722 27.6736 178.722 27.6695C178.722 27.6653 178.722 27.6611 178.722 27.657C178.722 27.6528 178.722 27.6487 178.722 27.6445C178.722 27.6404 178.722 27.6362 178.722 27.6321C178.722 27.6279 178.722 27.6238 178.722 27.6196C178.722 27.6155 178.722 27.6114 178.722 27.6072C178.722 27.6031 178.722 27.599 178.722 27.5948C178.722 27.5907 178.722 27.5866 178.722 27.5824C178.722 27.5783 178.722 27.5742 178.722 27.5701C178.722 27.5659 178.722 27.5618 178.722 27.5577C178.722 27.5536 178.722 27.5495 178.722 27.5454C178.722 27.5412 178.722 27.5371 178.722 27.533C178.722 27.5289 178.722 27.5248 178.722 27.5207C178.722 27.5166 178.722 27.5125 178.722 27.5084C178.722 27.5043 178.722 27.5002 178.722 27.4961C178.722 27.492 178.722 27.4879 178.722 27.4838C178.722 27.4797 178.722 27.4756 178.722 27.4716C178.722 27.4675 178.722 27.4634 178.722 27.4593C178.722 27.4552 178.722 27.4511 178.722 27.4471C178.722 27.443 178.722 27.4389 178.722 27.4348C178.722 27.4308 178.722 27.4267 178.722 27.4226C178.722 27.4186 178.722 27.4145 178.722 27.4104C178.722 27.4064 178.722 27.4023 178.722 27.3982C178.722 27.3942 178.722 27.3901 178.722 27.3861C178.722 27.382 178.722 27.378 178.722 27.3739C178.722 27.3699 178.722 27.3658 178.722 27.3618C178.722 27.3577 178.722 27.3537 178.722 27.3497C178.722 27.3456 178.722 27.3416 178.722 27.3375C178.722 27.3335 178.722 27.3295 178.722 27.3254C178.722 27.3214 178.722 27.3174 178.722 27.3134C178.722 27.3093 178.722 27.3053 178.722 27.3013C178.722 27.2973 178.722 27.2932 178.722 27.2892C178.722 27.2852 178.722 27.2812 178.722 27.2772C178.722 27.2732 178.722 27.2691 178.722 27.2651C178.722 27.2611 178.722 27.2571 178.722 27.2531C178.722 27.2491 178.722 27.2451 178.722 27.2411C178.722 27.2371 178.722 27.2331 178.722 27.2291C178.722 27.2251 178.722 27.2211 178.722 27.2171C178.722 27.2132 178.722 27.2092 178.722 27.2052C178.722 27.2012 178.722 27.1972 178.722 27.1932C178.722 27.1893 178.722 27.1853 178.722 27.1813C178.722 27.1773 178.722 27.1733 178.722 27.1694C178.722 27.1654 178.722 27.1614 178.722 27.1575C178.722 27.1535 178.722 27.1495 178.722 27.1456C178.722 27.1416 178.722 27.1376 178.722 27.1337C178.722 27.1297 178.722 27.1258 178.722 27.1218C178.722 27.1179 178.722 27.1139 178.722 27.11C178.722 27.106 178.722 27.1021 178.722 27.0981C178.722 27.0942 178.722 27.0902 178.722 27.0863C178.722 27.0824 178.722 27.0784 178.722 27.0745C178.722 27.0706 178.722 27.0666 178.722 27.0627C178.722 27.0588 178.722 27.0548 178.722 27.0509C178.722 27.047 178.722 27.0431 178.722 27.0391C178.722 27.0352 178.722 27.0313 178.722 27.0274C178.722 27.0235 178.722 27.0195 178.722 27.0156C178.722 27.0117 178.722 27.0078 178.722 27.0039C178.722 27 178.722 26.9961 178.722 26.9922C178.722 26.9883 178.722 26.9844 178.722 26.9805C178.722 26.9766 178.722 26.9727 178.722 26.9688C178.722 26.9649 178.722 26.961 178.722 26.9571C178.722 26.9532 178.722 26.9493 178.722 26.9455C178.722 26.9416 178.722 26.9377 178.722 26.9338C178.722 26.9299 178.722 26.9261 178.722 26.9222C178.722 26.9183 178.722 26.9144 178.722 26.9106C178.722 26.9067 178.722 26.9028 178.722 26.8989C178.722 26.8951 178.722 26.8912 178.722 26.8874C178.722 26.8835 178.722 26.8796 178.722 26.8758C178.722 26.8719 178.722 26.8681 178.722 26.8642C178.722 26.8604 178.722 26.8565 178.722 26.8527C178.722 26.8488 178.722 26.845 178.722 26.8411C178.722 26.8373 178.722 26.8334 178.722 26.8296C178.722 26.8258 178.722 26.8219 178.722 26.8181C178.722 26.8143 178.722 26.8104 178.722 26.8066C178.722 26.8028 178.722 26.7989 178.722 26.7951C178.722 26.7913 178.722 26.7875 178.722 26.7836C178.722 26.7798 178.722 26.776 178.722 26.7722C178.722 26.7684 178.722 26.7646 178.722 26.7607C178.722 26.7569 178.722 26.7531 178.722 26.7493C178.722 26.7455 178.722 26.7417 178.722 26.7379C178.722 26.7341 178.722 26.7303 178.722 26.7265C178.722 26.7227 178.722 26.7189 178.722 26.7151C178.722 26.7113 178.722 26.7075 178.722 26.7037C178.722 26.6999 178.722 26.6962 178.722 26.6924C178.722 26.6886 178.722 26.6848 178.722 26.681C178.722 26.6773 178.722 26.6735 178.722 26.6697C178.722 26.6659 178.722 26.6622 178.722 26.6584C178.722 26.6546 178.722 26.6508 178.722 26.6471C178.722 26.6433 178.722 26.6395 178.722 26.6358C178.722 26.632 178.722 26.6283 178.722 26.6245C178.722 26.6208 178.722 26.617 178.722 26.6132C178.722 26.6095 178.722 26.6057 178.722 26.602C178.722 26.5983 178.722 26.5945 178.722 26.5908C178.722 26.587 178.722 26.5833 178.722 26.5795C178.722 26.5758 178.722 26.5721 178.722 26.5683C178.722 26.5646 178.722 26.5609 178.722 26.5571C178.722 26.5534 178.722 26.5497 178.722 26.546C178.722 26.5422 178.722 26.5385 178.722 26.5348C178.722 26.5311 178.722 26.5274 178.722 26.5236C178.722 26.5199 178.722 26.5162 178.722 26.5125C178.722 26.5088 178.722 26.5051 178.722 26.5014C178.722 26.4977 178.722 26.494 178.722 26.4903C178.722 26.4866 178.722 26.4829 178.722 26.4792C178.722 26.4755 178.722 26.4718 178.722 26.4681C178.722 26.4644 178.722 26.4607 178.722 26.457C178.722 26.4533 178.722 26.4496 178.722 26.4459C178.722 26.4423 178.722 26.4386 178.722 26.4349C178.722 26.4312 178.722 26.4275 178.722 26.4239C178.722 26.4202 178.722 26.4165 178.722 26.4129C178.722 26.4092 178.722 26.4055 178.722 26.4019C178.722 26.3982 178.722 26.3945 178.722 26.3909C178.722 26.3872 178.722 26.3835 178.722 26.3799C178.722 26.3762 178.722 26.3726 178.722 26.3689C178.722 26.3653 178.722 26.3616 178.722 26.358C178.722 26.3543 178.722 26.3507 178.722 26.347C178.722 26.3434 178.722 26.3398 178.722 26.3361C178.722 26.3325 178.722 26.3289 178.722 26.3252C178.722 26.3216 178.722 26.318 178.722 26.3143C178.722 26.3107 178.722 26.3071 178.722 26.3035C178.722 26.2998 178.722 26.2962 178.722 26.2926C178.722 26.289 178.722 26.2854 178.722 26.2817C178.722 26.2781 178.722 26.2745 178.722 26.2709C178.722 26.2673 178.722 26.2637 178.722 26.2601C178.722 26.2565 178.722 26.2529 178.722 26.2493C178.722 26.2457 178.722 26.2421 178.722 26.2385C178.722 26.2349 178.722 26.2313 178.722 26.2277C178.722 26.2241 178.722 26.2205 178.722 26.2169C178.722 26.2133 178.722 26.2097 178.722 26.2062C178.722 26.2026 178.722 26.199 178.722 26.1954C178.722 26.1918 178.722 26.1883 178.722 26.1847C178.722 26.1811 178.722 26.1775 178.722 26.174C178.722 26.1704 178.722 26.1668 178.722 26.1633C178.722 26.1597 178.722 26.1562 178.722 26.1526C178.722 26.149 178.722 26.1455 178.722 26.1419C178.722 26.1384 178.722 26.1348 178.722 26.1313C178.722 26.1277 178.722 26.1242 178.722 26.1206C178.722 26.1171 178.722 26.1135 178.722 26.11C178.722 26.1064 178.722 26.1029 178.722 26.0994C178.722 26.0958 178.722 26.0923 178.722 26.0888C178.722 26.0852 178.722 26.0817 178.722 26.0782C178.722 26.0746 178.722 26.0711 178.722 26.0676C178.722 26.0641 178.722 26.0606 178.722 26.057C178.722 26.0535 178.722 26.05 178.722 26.0465C178.722 26.043 178.722 26.0395 178.722 26.0359C178.722 26.0324 178.722 26.0289 178.722 26.0254C178.722 26.0219 178.722 26.0184 178.722 26.0149C178.722 26.0114 178.722 26.0079 178.722 26.0044C178.722 26.0009 178.722 25.9974 178.722 25.9939C178.722 25.9905 178.722 25.987 178.722 25.9835C178.722 25.98 178.722 25.9765 178.722 25.973C178.722 25.9695 178.722 25.9661 178.722 25.9626C178.722 25.9591 178.722 25.9556 178.722 25.9522C178.722 25.9487 178.722 25.9452 178.722 25.9417C178.722 25.9383 178.722 25.9348 178.722 25.9313C178.722 25.9279 178.722 25.9244 178.722 25.921C178.722 25.9175 178.722 25.914 178.722 25.9106C178.722 25.9071 178.722 25.9037 178.722 25.9002C178.722 25.8968 178.722 25.8933 178.722 25.8899C178.722 25.8864 178.722 25.883 178.722 25.8796C178.722 25.8761 178.722 25.8727 178.722 25.8692C178.722 25.8658 178.722 25.8624 178.722 25.8589C178.722 25.8555 178.722 25.8521 178.722 25.8487C178.722 25.8452 178.722 25.8418 178.722 25.8384C178.722 25.835 178.722 25.8315 178.722 25.8281C178.722 25.8247 178.722 25.8213 178.722 25.8179C178.722 25.8145 178.722 25.8111 178.722 25.8076C178.722 25.8042 178.722 25.8008 178.722 25.7974C178.722 25.794 178.722 25.7906 178.722 25.7872C178.722 25.7838 178.722 25.7804 178.722 25.777C178.722 25.7736 178.722 25.7702 178.722 25.7668C178.722 25.7635 178.722 25.7601 178.722 25.7567C178.722 25.7533 178.722 25.7499 178.722 25.7465C178.722 25.7431 178.722 25.7398 178.722 25.7364C178.722 25.733 178.722 25.7296 178.722 25.7263C178.722 25.7229 178.722 25.7195 178.722 25.7162C178.722 25.7128 178.722 25.7094 178.722 25.7061C178.722 25.7027 178.722 25.6993 178.722 25.696C178.722 25.6926 178.722 25.6893 178.722 25.6859C178.722 25.6826 178.722 25.6792 178.722 25.6759C178.722 25.6725 178.722 25.6692 178.722 25.6658C178.722 25.6625 178.722 25.6591 178.722 25.6558C178.722 25.6525 178.722 25.6491 178.722 25.6458C178.722 25.6424 178.722 25.6391 178.722 25.6358C178.722 25.6324 178.722 25.6291 178.722 25.6258C178.722 25.6225 178.722 25.6191 178.722 25.6158C178.722 25.6125 178.722 25.6092 178.722 25.6059C178.722 25.6025 178.722 25.5992 178.722 25.5959C178.722 25.5926 178.722 25.5893 178.722 25.586C178.722 25.5827 178.722 25.5794 178.722 25.5761C178.722 25.5728 178.722 25.5695 178.722 25.5662C178.722 25.5629 178.722 25.5596 178.722 25.5563C178.722 25.553 178.722 25.5497 178.722 25.5464C178.722 25.5431 178.722 25.5398 178.722 25.5365C178.722 25.5332 178.722 25.53 178.722 25.5267C178.722 25.5234 178.722 25.5201 178.722 25.5168C178.722 25.5136 178.722 25.5103 178.722 25.507C178.722 25.5038 178.722 25.5005 178.722 25.4972C178.722 25.494 178.722 25.4907 178.722 25.4874C178.722 25.4842 178.722 25.4809 178.722 25.4776C178.722 25.4744 178.722 25.4711 178.722 25.4679C178.722 25.4646 178.722 25.4614 178.722 25.4581C178.722 25.4549 178.722 25.4516 178.722 25.4484C178.722 25.4451 178.722 25.4419 178.722 25.4387C178.722 25.4354 178.722 25.4322 178.722 25.429C178.722 25.4257 178.722 25.4225 178.722 25.4193C178.722 25.416 178.722 25.4128 178.722 25.4096C178.722 25.4063 178.722 25.4031 178.722 25.3999C178.722 25.3967 178.722 25.3935 178.722 25.3902C178.722 25.387 178.722 25.3838 178.722 25.3806C178.722 25.3774 178.722 25.3742 178.722 25.371C178.722 25.3678 178.722 25.3646 178.722 25.3614C178.722 25.3582 178.722 25.355 178.722 25.3518C178.722 25.3486 178.722 25.3454 178.722 25.3422C178.722 25.339 178.722 25.3358 178.722 25.3326C178.722 25.3294 178.722 25.3262 178.722 25.323C178.722 25.3198 178.722 25.3167 178.722 25.3135C178.722 25.3103 178.722 25.3071 178.722 25.304C178.722 25.3008 178.722 25.2976 178.722 25.2944C178.722 25.2913 178.722 25.2881 178.722 25.2849C178.722 25.2818 178.722 25.2786 178.722 25.2754C178.722 25.2723 178.722 25.2691 178.722 25.266C178.722 25.2628 178.722 25.2596 178.722 25.2565C178.722 25.2533 178.722 25.2502 178.722 25.247C178.722 25.2439 178.722 25.2407 178.722 25.2376C178.722 25.2345 178.722 25.2313 178.722 25.2282C178.722 25.225 178.722 25.2219 178.722 25.2188C178.722 25.2156 178.722 25.2125 178.722 25.2094C178.722 25.2062 178.722 25.2031 178.722 25.2C178.722 25.1969 178.722 25.1937 178.722 25.1906C178.722 25.1875 178.722 25.1844 178.722 25.1813C178.722 25.1782 178.722 25.175 178.722 25.1719C178.722 25.1688 178.722 25.1657 178.722 25.1626C178.722 25.1595 178.722 25.1564 178.722 25.1533C178.722 25.1502 178.722 25.1471 178.722 25.144C178.722 25.1409 178.722 25.1378 178.722 25.1347C178.722 25.1316 178.722 25.1285 178.722 25.1254C178.722 25.1223 178.722 25.1193 178.722 25.1162C178.722 25.1131 178.722 25.11 178.722 25.1069C178.722 25.1039 178.722 25.1008 178.722 25.0977C178.722 25.0946 178.722 25.0916 178.722 25.0885C178.722 25.0854 178.722 25.0823 178.722 25.0793C178.722 25.0762 178.722 25.0732 178.722 25.0701C178.722 25.067 178.722 25.064 178.722 25.0609C178.722 25.0579 178.722 25.0548 178.722 25.0518C178.722 25.0487 178.722 25.0457 178.722 25.0426C178.722 25.0396 178.722 25.0365 178.722 25.0335C178.722 25.0304 178.722 25.0274 178.722 25.0244C178.722 25.0213 178.722 25.0183 178.722 25.0152C178.722 25.0122 178.722 25.0092 178.722 25.0061C178.722 25.0031 178.722 25.0001 178.722 24.9971C178.722 24.994 178.722 24.991 178.722 24.988C178.722 24.985 178.722 24.982 178.722 24.979C178.722 24.9759 178.722 24.9729 178.722 24.9699C178.722 24.9669 178.722 24.9639 178.722 24.9609C178.722 24.9579 178.722 24.9549 178.722 24.9519C178.722 24.9489 178.722 24.9459 178.722 24.9429C178.722 24.9399 178.722 24.9369 178.722 24.9339C178.722 24.9309 178.722 24.9279 178.722 24.9249C178.722 24.9219 178.722 24.919 178.722 24.916C178.722 24.913 178.722 24.91 178.722 24.907C178.722 24.9041 178.722 24.9011 178.722 24.8981C178.722 24.8951 178.722 24.8922 178.722 24.8892C178.722 24.8862 178.722 24.8833 178.722 24.8803C178.722 24.8773 178.722 24.8744 178.722 24.8714C178.722 24.8684 178.722 24.8655 178.722 24.8625C178.722 24.8596 178.722 24.8566 178.722 24.8537C178.722 24.8507 178.722 24.8478 178.722 24.8448C178.722 24.8419 178.722 24.8389 178.722 24.836C178.722 24.833 178.722 24.8301 178.722 24.8272C178.722 24.8242 178.722 24.8213 178.722 24.8184C178.722 24.8154 178.722 24.8125 178.722 24.8096C178.722 24.8066 178.722 24.8037 178.722 24.8008C178.722 24.7979 178.722 24.7949 178.722 24.792C178.722 24.7891 178.722 24.7862 178.722 24.7833C178.722 24.7804 178.722 24.7775 178.722 24.7745C178.722 24.7716 178.722 24.7687 178.722 24.7658C178.722 24.7629 178.722 24.76 178.722 24.7571C178.722 24.7542 178.722 24.7513 178.722 24.7484C178.722 24.7455 178.722 24.7426 178.722 24.7397C178.722 24.7368 178.722 24.734 178.722 24.7311C178.722 24.7282 178.722 24.7253 178.722 24.7224C178.722 24.7195 178.722 24.7166 178.722 24.7138C178.722 24.7109 178.722 24.708 178.722 24.7051C178.722 24.7023 178.722 24.6994 178.722 24.6965C178.722 24.6937 178.722 24.6908 178.722 24.6879C178.722 24.6851 178.722 24.6822 178.722 24.6793C178.722 24.6765 178.722 24.6736 178.722 24.6708C178.722 24.6679 178.722 24.6651 178.722 24.6622C178.722 24.6594 178.722 24.6565 178.722 24.6537C178.722 24.6508 178.722 24.648 178.722 24.6451C178.722 24.6423 178.722 24.6395 178.722 24.6366C178.722 24.6338 178.722 24.631 178.722 24.6281C178.722 24.6253 178.722 24.6225 178.722 24.6196C178.722 24.6168 178.722 24.614 178.722 24.6112C178.722 24.6083 178.722 24.6055 178.722 24.6027C178.722 24.5999 178.722 24.5971 178.722 24.5942C178.722 24.5914 178.722 24.5886 178.722 24.5858C178.722 24.583 178.722 24.5802 178.722 24.5774C178.722 24.5746 178.722 24.5718 178.722 24.569C178.722 24.5662 178.722 24.5634 178.722 24.5606C178.722 24.5578 178.722 24.555 178.722 24.5522C178.722 24.5494 178.722 24.5466 178.722 24.5438C178.722 24.5411 178.722 24.5383 178.722 24.5355C178.722 24.5327 178.722 24.5299 178.722 24.5272C178.722 24.5244 178.722 24.5216 178.722 24.5188C178.722 24.5161 178.722 24.5133 178.722 24.5105C178.722 24.5078 178.722 24.505 178.722 24.5022C178.722 24.4995 178.722 24.4967 178.722 24.4939C178.722 24.4912 178.722 24.4884 178.722 24.4857C178.722 24.4829 178.722 24.4802 178.722 24.4774C178.722 24.4747 178.722 24.4719 178.722 24.4692C178.722 24.4664 178.722 24.4637 178.722 24.4609C178.722 24.4582 178.722 24.4555 178.722 24.4527C178.722 24.45 178.722 24.4473 178.722 24.4445C178.722 24.4418 178.722 24.4391 178.722 24.4363C178.722 24.4336 178.722 24.4309 178.722 24.4282C178.722 24.4254 178.722 24.4227 178.722 24.42C178.722 24.4173 178.722 24.4146 178.722 24.4119C178.722 24.4092 178.722 24.4064 178.722 24.4037C178.722 24.401 178.722 24.3983 178.722 24.3956C178.722 24.3929 178.722 24.3902 178.722 24.3875C178.722 24.3848 178.722 24.3821 178.722 24.3794C178.722 24.3767 178.722 24.374 178.722 24.3713C178.722 24.3687 178.722 24.366 178.722 24.3633C178.722 24.3606 178.722 24.3579 178.722 24.3552C178.722 24.3526 178.722 24.3499 178.722 24.3472C178.722 24.3445 178.722 24.3418 178.722 24.3392C178.722 24.3365 178.722 24.3338 178.722 24.3312C178.722 24.3285 178.722 24.3258 178.722 24.3232C178.722 24.3205 178.722 24.3178 178.722 24.3152C178.722 24.3125 178.722 24.3099 178.722 24.3072C178.722 24.3046 178.722 24.3019 178.722 24.2993C178.722 24.2966 178.722 24.294 178.722 24.2913C178.722 24.2887 178.722 24.286 178.722 24.2834C178.722 24.2808 178.722 24.2781 178.722 24.2755C178.722 24.2729 178.722 24.2702 178.722 24.2676C178.722 24.265 178.722 24.2623 178.722 24.2597C178.722 24.2571 178.722 24.2545 178.722 24.2518C178.722 24.2492 178.722 24.2466 178.722 24.244C178.722 24.2414 178.722 24.2387 178.722 24.2361C178.722 24.2335 178.722 24.2309 178.722 24.2283C178.722 24.2257 178.722 24.2231 178.722 24.2205C178.722 24.2179 178.722 24.2153 178.722 24.2127C178.722 24.2101 178.722 24.2075 178.722 24.2049C178.722 24.2023 178.722 24.1997 178.722 24.1971C178.722 24.1945 178.722 24.1919 178.722 24.1894C178.722 24.1868 178.722 24.1842 178.722 24.1816C178.722 24.179 178.722 24.1765 178.722 24.1739C178.722 24.1713 178.722 24.1687 178.722 24.1662C178.722 24.1636 178.722 24.161 178.722 24.1585C178.722 24.1559 178.722 24.1533 178.722 24.1508C178.722 24.1482 178.722 24.1456 178.722 24.1431C178.722 24.1405 178.722 24.138 178.722 24.1354C178.722 24.1329 178.722 24.1303 178.722 24.1278C178.722 24.1252 178.722 24.1227 178.722 24.1201C178.722 24.1176 178.722 24.115 178.722 24.1125C178.722 24.11 178.722 24.1074 178.722 24.1049C178.722 24.1024 178.722 24.0998 178.722 24.0973C178.722 24.0948 178.722 24.0922 178.722 24.0897C178.722 24.0872 178.722 24.0847 178.722 24.0821C178.722 24.0796 178.722 24.0771 178.722 24.0746C178.722 24.0721 178.722 24.0696 178.722 24.067C178.722 24.0645 178.722 24.062 178.722 24.0595C178.722 24.057 178.722 24.0545 178.722 24.052C178.722 24.0495 178.722 24.047 178.722 24.0445C178.722 24.042 178.722 24.0395 178.722 24.037C178.722 24.0345 178.722 24.032 178.722 24.0295C178.722 24.0271 178.722 24.0246 178.722 24.0221C178.722 24.0196 178.722 24.0171 178.722 24.0146C178.722 24.0122 178.722 24.0097 178.722 24.0072C178.722 24.0047 178.722 24.0023 178.722 23.9998C178.722 23.9973 178.722 23.9948 178.722 23.9924C178.722 23.9899 178.722 23.9875 178.722 23.985C178.722 23.9825 178.722 23.9801 178.722 23.9776C178.722 23.9752 178.722 23.9727 178.722 23.9703C178.722 23.9678 178.722 23.9654 178.722 23.9629C178.722 23.9605 178.722 23.958 178.722 23.9556C178.722 23.9531 178.722 23.9507 178.722 23.9482C178.722 23.9458 178.722 23.9434 178.722 23.9409C178.722 23.9385 178.722 23.9361 178.722 23.9336C178.722 23.9312 178.722 23.9288 178.722 23.9264C178.722 23.9239 178.722 23.9215 178.722 23.9191C178.722 23.9167 178.722 23.9143 178.722 23.9118C178.722 23.9094 178.722 23.907 178.722 23.9046C178.722 23.9022 178.722 23.8998 178.722 23.8974C178.722 23.895 178.722 23.8926 178.722 23.8902C178.722 23.8878 178.722 23.8854 178.722 23.883C178.722 23.8806 178.722 23.8782 178.722 23.8758C178.722 23.8734 178.722 23.871 178.722 23.8686C178.722 23.8662 178.722 23.8638 178.722 23.8615C178.722 23.8591 178.722 23.8567 178.722 23.8543C178.722 23.8519 178.722 23.8496 178.722 23.8472C178.722 23.8448 178.722 23.8424 178.722 23.8401C178.722 23.8377 178.722 23.8353 178.722 23.833C178.722 23.8306 178.722 23.8282 178.722 23.8259C178.722 23.8235 178.722 23.8212 178.722 23.8188C178.722 23.8164 178.722 23.8141 178.722 23.8117C178.722 23.8094 178.722 23.807 178.722 23.8047C178.722 23.8023 178.722 23.8 178.722 23.7977C178.722 23.7953 178.722 23.793 178.722 23.7906C178.722 23.7883 178.722 23.786 178.722 23.7836C178.722 23.7813 178.722 23.779 178.722 23.7766C178.722 23.7743 178.722 23.772 178.722 23.7697C178.722 23.7673 178.722 23.765 178.722 23.7627C178.722 23.7604 178.722 23.7581 178.722 23.7557C178.722 23.7534 178.722 23.7511 178.722 23.7488C178.722 23.7465 178.722 23.7442 178.722 23.7419C178.722 23.7396 178.722 23.7373 178.722 23.735C178.722 23.7327 178.722 23.7304 178.722 23.7281C178.722 23.7258 178.722 23.7235 178.722 23.7212C178.722 23.7189 178.722 23.7166 178.722 23.7143C178.722 23.712 178.722 23.7098 178.722 23.7075C178.722 23.7052 178.722 23.7029 178.722 23.7006C178.722 23.6984 178.722 23.6961 178.722 23.6938C178.722 23.6915 178.722 23.6893 178.722 23.687C178.722 23.6847 178.722 23.6825 178.722 23.6802C178.722 23.6779 178.722 23.6757 178.722 23.6734C178.722 23.6711 178.722 23.6689 178.722 23.6666C178.722 23.6644 178.722 23.6621 178.722 23.6599C178.722 23.6576 178.722 23.6554 178.722 23.6531C178.722 23.6509 178.722 23.6486 178.722 23.6464C178.722 23.6442 178.722 23.6419 178.722 23.6397C178.722 23.6374 178.722 23.6352 178.722 23.633C178.722 23.6307 178.722 23.6285 178.722 23.6263C178.722 23.6241 178.722 23.6218 178.722 23.6196C178.722 23.6174 178.722 23.6152 178.722 23.6129C178.722 23.6107 178.722 23.6085 178.722 23.6063C178.722 23.6041 178.722 23.6019 178.722 23.5997C178.722 23.5975 178.722 23.5952 178.722 23.593C178.722 23.5908 178.722 23.5886 178.722 23.5864C178.722 23.5842 178.722 23.582 178.722 23.5798C178.722 23.5776 178.722 23.5754 178.722 23.5733C178.722 23.5711 178.722 23.5689 178.722 23.5667C178.722 23.5645 178.722 23.5623 178.722 23.5601C178.722 23.558 178.722 23.5558 178.722 23.5536C178.722 23.5514 178.722 23.5492 178.722 23.5471C178.722 23.5449 178.722 23.5427 178.722 23.5406C178.722 23.5384 178.722 23.5362 178.722 23.5341C178.722 23.5319 178.722 23.5297 178.722 23.5276C178.722 23.5254 178.722 23.5233 178.722 23.5211C178.722 23.519 178.722 23.5168 178.722 23.5146C178.722 23.5125 178.722 23.5104 178.722 23.5082C178.722 23.5061 178.722 23.5039 178.722 23.5018C178.722 23.4996 178.722 23.4975 178.722 23.4954C178.722 23.4932 178.722 23.4911 178.722 23.489C178.722 23.4868 178.722 23.4847 178.722 23.4826C178.722 23.4804 178.722 23.4783 178.722 23.4762C178.722 23.4741 178.722 23.472 178.722 23.4698C178.722 23.4677 178.722 23.4656 178.722 23.4635C178.722 23.4614 178.722 23.4593 178.722 23.4572C178.722 23.455 178.722 23.4529 178.722 23.4508C178.722 23.4487 178.722 23.4466 178.722 23.4445C178.722 23.4424 178.722 23.4403 178.722 23.4382C178.722 23.4361 178.722 23.4341 178.722 23.432C178.722 23.4299 178.722 23.4278 178.722 23.4257C178.722 23.4236 178.722 23.4215 178.722 23.4194C178.722 23.4174 178.722 23.4153 178.722 23.4132C178.722 23.4111 178.722 23.4091 178.722 23.407C178.722 23.4049 178.722 23.4028 178.722 23.4008C178.722 23.3987 178.722 23.3966 178.722 23.3946C178.722 23.3925 178.722 23.3905 178.722 23.3884C178.722 23.3863 178.722 23.3843 178.722 23.3822C178.722 23.3802 178.722 23.3781 178.722 23.3761C178.722 23.374 178.722 23.372 178.722 23.3699C178.722 23.3679 178.722 23.3658 178.722 23.3638C178.722 23.3618 178.722 23.3597 178.722 23.3577C178.722 23.3557 178.722 23.3536 178.722 23.3516C178.722 23.3496 178.722 23.3475 178.722 23.3455C178.722 23.3435 178.722 23.3415 178.722 23.3394C178.722 23.3374 178.722 23.3354 178.722 23.3334C178.722 23.3314 178.722 23.3293 178.722 23.3273C178.722 23.3253 178.722 23.3233 178.722 23.3213C178.722 23.3193 178.722 23.3173 178.722 23.3153C178.722 23.3133 178.722 23.3113 178.722 23.3093C178.722 23.3073 178.722 23.3053 178.722 23.3033C178.722 23.3013 178.722 23.2993 178.722 23.2973C178.722 23.2953 178.722 23.2933 178.722 23.2914C178.722 23.2894 178.722 23.2874 178.722 23.2854C178.722 23.2834 178.722 23.2814 178.722 23.2795C178.722 23.2775 178.722 23.2755 178.722 23.2735C178.722 23.2716 178.722 23.2696 178.722 23.2676C178.722 23.2657 178.722 23.2637 178.722 23.2617C178.722 23.2598 178.722 23.2578 178.722 23.2559C178.722 23.2539 178.722 23.252 178.722 23.25H176.722ZM176.722 28.05C176.722 30.6536 176.772 32.5888 176.876 33.833L178.869 33.667C178.772 32.5111 178.722 30.6464 178.722 28.05H176.722ZM176.888 33.9289C177.1 35.0922 177.418 36.2069 177.844 37.2714L179.701 36.5286C179.327 35.5931 179.045 34.6077 178.856 33.5711L176.888 33.9289ZM177.866 37.3229C178.659 39.0215 179.952 40.4103 181.692 41.498L182.752 39.802C181.293 38.8897 180.286 37.7785 179.678 36.4771L177.866 37.3229ZM181.732 41.5216C183.387 42.4526 185.933 43.6213 189.342 45.0247L190.103 43.1753C186.711 41.7787 184.257 40.6474 182.713 39.7784L181.732 41.5216ZM189.312 45.0119L192.312 46.3619L193.133 44.5381L190.133 43.1881L189.312 45.0119ZM192.304 46.3585C197.268 48.6419 201.147 50.8568 203.968 52.9967L205.177 51.4033C202.197 49.1432 198.176 46.8581 193.14 44.5415L192.304 46.3585ZM203.999 53.0192C206.858 55.021 208.88 57.4764 210.1 60.3867L211.944 59.6133C210.565 56.3236 208.286 53.579 205.146 51.3808L203.999 53.0192ZM210.112 60.4138C211.068 62.5165 211.691 64.7667 211.979 67.1691L213.965 66.9309C213.653 64.3333 212.977 61.8835 211.933 59.5862L210.112 60.4138ZM211.979 67.1691C212.272 69.6056 212.422 73.5546 212.422 79.05H214.422C214.422 73.5454 214.273 69.4944 213.965 66.9309L211.979 67.1691ZM212.422 79.05C212.422 84.0443 212.272 87.6393 211.981 89.8707L213.964 90.1293C214.273 87.7607 214.422 84.0557 214.422 79.05H212.422ZM211.981 89.8649C211.694 91.9732 211.119 94.0363 210.253 96.0561L212.091 96.8439C213.026 94.6637 213.651 92.4268 213.963 90.1351L211.981 89.8649ZM210.262 96.0362C208.363 100.214 205.234 103.401 200.825 105.606L201.719 107.394C206.51 104.999 209.982 101.486 212.083 96.8638L210.262 96.0362ZM200.825 105.606C196.401 107.817 190.865 108.95 184.172 108.95V110.95C191.08 110.95 196.943 109.783 201.719 107.394L200.825 105.606ZM233.539 106.05L233.047 106.921L233.055 106.925L233.539 106.05ZM222.889 94.5L223.787 94.0598L223.783 94.0528L222.889 94.5ZM218.839 75.3L217.839 75.3408L217.84 75.3516L217.841 75.3624L218.839 75.3ZM218.839 35.4L219.838 35.4434L219.838 35.4425L218.839 35.4ZM219.889 24.3L220.872 24.4821L219.889 24.3ZM222.139 16.8L221.225 16.3938L221.222 16.4013L222.139 16.8ZM232.939 4.49999L233.443 5.36377L233.449 5.35989L233.456 5.35591L232.939 4.49999ZM268.039 4.34999L267.527 5.20913L267.535 5.21377L268.039 4.34999ZM278.839 16.8L279.756 16.4013L279.755 16.4001L278.839 16.8ZM281.089 24.3L280.105 24.4821L280.109 24.4996L280.112 24.5169L281.089 24.3ZM282.289 35.4L281.29 35.4425L281.29 35.4434L282.289 35.4ZM282.289 74.85L283.288 74.8934L283.288 74.8925L282.289 74.85ZM281.089 85.8L280.112 85.5831L280.109 85.6004L280.105 85.6179L281.089 85.8ZM278.839 93.3L279.755 93.6999L279.756 93.6987L278.839 93.3ZM268.039 105.75L267.535 104.886L267.527 104.891L268.039 105.75ZM256.039 89.25L256.579 90.0912L256.6 90.0779L256.62 90.0637L256.039 89.25ZM259.339 85.05L260.253 85.4561L260.26 85.4389L260.267 85.4214L259.339 85.05ZM260.239 81.3L261.23 81.4322L261.231 81.424L260.239 81.3ZM260.689 37.8L259.689 37.8222V37.8227L260.689 37.8ZM260.239 28.8L259.247 28.9322L260.239 28.8ZM259.339 25.05L260.267 24.6786L260.26 24.6611L260.253 24.6439L259.339 25.05ZM256.039 21L255.457 21.8137L255.477 21.8279L255.498 21.8412L256.039 21ZM241.639 25.05L240.712 24.6743L240.71 24.6786L241.639 25.05ZM240.739 28.95L239.746 28.826L239.743 28.8546L239.741 28.8835L240.739 28.95ZM240.439 72.45L239.439 72.4722V72.4727L240.439 72.45ZM240.889 81.3L239.897 81.4322V81.4322L240.889 81.3ZM241.789 85.05L240.86 85.4214L240.862 85.4257L241.789 85.05ZM250.489 108.95C244.02 108.95 238.544 107.676 234.023 105.175L233.055 106.925C237.933 109.624 243.758 110.95 250.489 110.95V108.95ZM234.031 105.179C229.62 102.686 226.205 98.993 223.787 94.0598L221.991 94.9402C224.573 100.207 228.258 104.214 233.047 106.921L234.031 105.179ZM223.783 94.0528C222.623 91.7331 221.75 89.2136 221.167 86.4905L219.211 86.9095C219.827 89.7864 220.754 92.4669 221.994 94.9472L223.783 94.0528ZM221.167 86.4905C220.581 83.7605 220.135 80.0165 219.837 75.2376L217.841 75.3624C218.142 80.1835 218.596 84.0395 219.211 86.9095L221.167 86.4905ZM219.838 75.2592C219.639 70.3792 219.539 63.6449 219.539 55.05H217.539C217.539 63.6551 217.639 70.4208 217.839 75.3408L219.838 75.2592ZM219.539 55.05C219.539 46.5546 219.639 40.0216 219.838 35.4434L217.84 35.3566C217.639 39.9784 217.539 46.5454 217.539 55.05H219.539ZM219.838 35.4425C220.037 30.7614 220.384 27.1149 220.872 24.4821L218.905 24.1179C218.393 26.8851 218.04 30.6386 217.84 35.3575L219.838 35.4425ZM220.872 24.4821C221.359 21.8496 222.089 19.423 223.056 17.1987L221.222 16.4013C220.189 18.7769 219.418 21.3504 218.905 24.1179L220.872 24.4821ZM223.052 17.2061C225.373 11.985 228.836 8.05112 233.443 5.36377L232.435 3.63621C227.442 6.54885 223.704 10.815 221.225 16.3939L223.052 17.2061ZM233.456 5.35591C238.067 2.5697 243.729 1.14999 250.489 1.14999V-0.850006C243.448 -0.850006 237.41 0.630289 232.422 3.64408L233.456 5.35591ZM250.489 1.14999C257.358 1.14999 263.019 2.52373 267.527 5.2091L268.55 3.49089C263.658 0.57626 257.619 -0.850006 250.489 -0.850006V1.14999ZM267.535 5.21377C272.137 7.89817 275.6 11.878 277.922 17.1999L279.755 16.4001C277.278 10.722 273.541 6.40182 268.543 3.48621L267.535 5.21377ZM277.922 17.1987C278.889 19.423 279.618 21.8496 280.105 24.4821L282.072 24.1179C281.559 21.3504 280.789 18.7769 279.756 16.4013L277.922 17.1987ZM280.112 24.5169C280.694 27.1335 281.091 30.7666 281.29 35.4425L283.288 35.3575C283.087 30.6334 282.683 26.8665 282.065 24.0831L280.112 24.5169ZM281.29 35.4434C281.489 40.0216 281.589 46.5546 281.589 55.05H283.589C283.589 46.5454 283.489 39.9784 283.288 35.3566L281.29 35.4434ZM281.589 55.05C281.589 63.5452 281.489 70.1286 281.29 74.8075L283.288 74.8925C283.489 70.1714 283.589 63.5548 283.589 55.05H281.589ZM281.29 74.8066C281.091 79.3811 280.694 82.9652 280.112 85.5831L282.065 86.0169C282.683 83.2348 283.087 79.5189 283.288 74.8934L281.29 74.8066ZM280.105 85.6179C279.618 88.2504 278.889 90.677 277.922 92.9013L279.756 93.6987C280.789 91.323 281.559 88.7496 282.072 85.9821L280.105 85.6179ZM277.922 92.9001C275.6 98.222 272.137 102.202 267.535 104.886L268.543 106.614C273.541 103.698 277.278 99.378 279.755 93.6999L277.922 92.9001ZM267.527 104.891C263.019 107.576 257.358 108.95 250.489 108.95V110.95C257.619 110.95 263.658 109.524 268.55 106.609L267.527 104.891ZM250.489 91.6C252.91 91.6 254.968 91.1274 256.579 90.0912L255.498 88.4088C254.31 89.1726 252.668 89.6 250.489 89.6V91.6ZM256.62 90.0637C258.185 88.9457 259.391 87.3952 260.253 85.4561L258.425 84.6439C257.687 86.3048 256.692 87.5543 255.457 88.4363L256.62 90.0637ZM260.267 85.4214C260.707 84.3206 261.023 82.9839 261.23 81.4322L259.247 81.1678C259.054 82.6161 258.77 83.7794 258.41 84.6786L260.267 85.4214ZM261.231 81.424C261.438 79.7664 261.589 76.7178 261.688 72.3227L259.689 72.2773C259.589 76.6822 259.439 79.6336 259.246 81.176L261.231 81.424ZM261.688 72.3227C261.789 67.912 261.839 62.1536 261.839 55.05H259.839C259.839 62.1464 259.789 67.888 259.689 72.2773L261.688 72.3227ZM261.839 55.05C261.839 47.9464 261.789 42.188 261.688 37.7773L259.689 37.8227C259.789 42.212 259.839 47.9536 259.839 55.05H261.839ZM261.688 37.7778C261.589 33.2867 261.438 30.2316 261.23 28.6678L259.247 28.9322C259.439 30.3684 259.589 33.3133 259.689 37.8222L261.688 37.7778ZM261.23 28.6678C261.023 27.1161 260.707 25.7794 260.267 24.6786L258.41 25.4214C258.77 26.3206 259.054 27.4839 259.247 28.9322L261.23 28.6678ZM260.253 24.6439C259.388 22.6989 258.172 21.1824 256.579 20.1588L255.498 21.8412C256.706 22.6175 257.689 23.8011 258.425 25.4561L260.253 24.6439ZM256.62 20.1863C255.002 19.0303 252.928 18.5 250.489 18.5V20.5C252.65 20.5 254.276 20.9697 255.457 21.8137L256.62 20.1863ZM250.489 18.5C248.15 18.5 246.116 18.9922 244.445 20.0403C242.766 21.0929 241.529 22.6591 240.712 24.6743L242.565 25.4257C243.248 23.7409 244.236 22.5321 245.507 21.7347C246.786 20.9328 248.427 20.5 250.489 20.5V18.5ZM240.71 24.6786C240.267 25.7868 239.952 27.1787 239.746 28.826L241.731 29.074C241.925 27.5213 242.21 26.3132 242.567 25.4214L240.71 24.6786ZM239.741 28.8835C239.639 30.4089 239.539 33.3805 239.439 37.7773L241.438 37.8227C241.539 33.4195 241.638 30.4911 241.736 29.0165L239.741 28.8835ZM239.439 37.7773C239.339 42.188 239.289 47.9464 239.289 55.05H241.289C241.289 47.9536 241.339 42.212 241.438 37.8227L239.439 37.7773ZM239.289 55.05C239.289 62.1537 239.339 67.9619 239.439 72.4722L241.438 72.4278C241.339 67.9381 241.289 62.1463 241.289 55.05H239.289ZM239.439 72.4727C239.539 76.8648 239.689 79.869 239.897 81.4322L241.88 81.1678C241.688 79.731 241.539 76.8352 241.438 72.4273L239.439 72.4727ZM239.897 81.4322C240.104 82.9839 240.42 84.3206 240.86 85.4214L242.717 84.6786C242.357 83.7794 242.073 82.6161 241.88 81.1678L239.897 81.4322ZM240.862 85.4257C241.677 87.4362 242.899 89.0017 244.551 90.0556C246.197 91.1059 248.196 91.6 250.489 91.6V89.6C248.482 89.6 246.88 89.1691 245.626 88.3694C244.378 87.5733 243.4 86.3638 242.715 84.6743L240.862 85.4257ZM289.905 2.09999V1.09999H288.905V2.09999H289.905ZM328.755 2.09999H329.755V1.09999H328.755V2.09999ZM328.755 20.85V21.85H329.755V20.85H328.755ZM311.055 20.85V19.85H310.055V20.85H311.055ZM311.055 43.05H310.055V44.05H311.055V43.05ZM328.455 43.05H329.455V42.05H328.455V43.05ZM328.455 61.65V62.65H329.455V61.65H328.455ZM311.055 61.65V60.65H310.055V61.65H311.055ZM311.055 108V109H312.055V108H311.055ZM289.905 108H288.905V109H289.905V108ZM289.905 3.09999H328.755V1.09999H289.905V3.09999ZM327.755 2.09999V20.85H329.755V2.09999H327.755ZM328.755 19.85H311.055V21.85H328.755V19.85ZM310.055 20.85V43.05H312.055V20.85H310.055ZM311.055 44.05H328.455V42.05H311.055V44.05ZM327.455 43.05V61.65H329.455V43.05H327.455ZM328.455 60.65H311.055V62.65H328.455V60.65ZM310.055 61.65V108H312.055V61.65H310.055ZM311.055 107H289.905V109H311.055V107ZM290.905 108V2.09999H288.905V108H290.905ZM344.611 20.85H345.611V19.85H344.611V20.85ZM331.861 20.85H330.861V21.85H331.861V20.85ZM331.861 2.09999V1.09999H330.861V2.09999H331.861ZM378.511 2.09999H379.511V1.09999H378.511V2.09999ZM378.511 20.85V21.85H379.511V20.85H378.511ZM365.761 20.85V19.85H364.761V20.85H365.761ZM365.761 108V109H366.761V108H365.761ZM344.611 108H343.611V109H344.611V108ZM344.611 19.85H331.861V21.85H344.611V19.85ZM332.861 20.85V2.09999H330.861V20.85H332.861ZM331.861 3.09999H378.511V1.09999H331.861V3.09999ZM377.511 2.09999V20.85H379.511V2.09999H377.511ZM378.511 19.85H365.761V21.85H378.511V19.85ZM364.761 20.85V108H366.761V20.85H364.761ZM365.761 107H344.611V109H365.761V107ZM345.611 108V20.85H343.611V108H345.611Z" fill="black" mask="url(#path-1-outside-1_61_623)"/>
    </svg>
