
    <svg width="20" height="20" viewBox="0 0 20 20" fill="black" xmlns="http://www.w3.org/2000/svg">
        <path opacity="0.5" fill-rule="evenodd" clip-rule="evenodd" d="M2 9C2 5.13401 5.13401 2 9 2C12.866 2 16 5.13401 16 9C16 10.8863 15.2539 12.5984 14.0406 13.8572C14.0068 13.8833 13.9743 13.9118 13.9433 13.9428C13.9123 13.9738 13.8837 14.0064 13.8576 14.0402C12.5988 15.2537 10.8866 16 9 16C5.13401 16 2 12.866 2 9ZM14.618 16.0317C13.0782 17.2634 11.1251 18 9 18C4.02944 18 0 13.9706 0 9C0 4.02944 4.02944 0 9 0C13.9706 0 18 4.02944 18 9C18 11.1249 17.2636 13.0778 16.0321 14.6174L19.7075 18.2928C20.098 18.6833 20.098 19.3165 19.7075 19.707C19.317 20.0975 18.6838 20.0975 18.2933 19.707L14.618 16.0317Z" fill="white"/>
    </svg>
