<svg xmlns="http://www.w3.org/2000/svg" viewBox="0 0 22 22" id="Origin-Logo--Streamline-Ultimate" height="22" width="22"><desc>Origin Logo Streamline Icon: https://streamlinehq.com</desc><path d="M11 2.9534083333333334h-0.4300083333333333c0.10101666666666667 -0.7175666666666667 0.37455 -1.400025 0.7973166666666667 -1.9886166666666665 0.23539999999999997 -0.24236666666666667 0.12017499999999999 -0.6486333333333333 -0.20744166666666666 -0.7314083333333333 -0.10165833333333332 -0.025666666666666667 -0.209275 -0.014116666666666666 -0.3032333333333333 0.032725000000000004 -1.298825 0.45686666666666664 -7.918533333333333 4.066791666666666 -7.918533333333333 10.749291666666666 0 4.452433333333333 3.609375 8.0619 8.0619 8.0619h0.4300083333333333c-0.09964166666666667 0.7207749999999999 -0.37326666666666664 1.40635 -0.7973166666666667 1.9975999999999998 -0.11064166666666667 0.15546666666666667 -0.11064166666666667 0.3640083333333333 0 0.5195666666666666 0.08552499999999999 0.11165 0.2177083333333333 0.17774166666666666 0.358325 0.17911666666666665 0.047391666666666665 0.008525 0.09597499999999999 0.008525 0.14336666666666667 0 1.3078083333333335 -0.46585 7.927516666666666 -4.075775 7.927516666666666 -10.758183333333333 0 -4.4525250000000005 -3.609375 -8.061991666666666 -8.0619 -8.061991666666666Zm0 11.197175c-2.4134916666666664 0 -3.921866666666667 -2.6126833333333335 -2.7151666666666667 -4.702866666666666 1.2066999999999999 -2.0900916666666665 4.223633333333333 -2.0900916666666665 5.4303333333333335 0 0.27518333333333334 0.4766666666666667 0.42001666666666665 1.0173166666666664 0.42001666666666665 1.5676833333333333 0 1.7314916666666667 -1.4036916666666668 3.135183333333333 -3.135183333333333 3.135183333333333Z" fill="#ff6e01" stroke-width="0.9167"></path></svg>
