<svg width="24px" height="24px" viewBox="0 0 24 24" fill="none" xmlns="http://www.w3.org/2000/svg">
    <g clip-path="url(#clip0_1161_97898)">
        <path d="M12 20C16.4183 20 20 16.4183 20 12C20 7.58172 16.4183 4 12 4C7.58172 4 4 7.58172 4 12C4 16.4183 7.58172 20 12 20Z" fill="#FCAF17"/>
        <path d="M14.5861 13.3319L14.3153 11.6309L13.32 13.3184H13.1309C13.0175 13.1231 12.9734 12.8397 12.9734 12.6633C12.9734 12.3736 12.9923 12.09 12.9923 11.7184C12.9923 11.227 12.8475 10.9684 12.4631 10.8747V10.862C13.2756 10.7486 13.6473 10.2069 13.6473 9.45094C13.6473 8.37375 12.9286 8.14062 11.9911 8.14062H9.46482L8.39404 13.2058H9.73576L10.1264 11.3602H11.0209C11.4997 11.3602 11.695 11.5933 11.695 12.0405C11.695 12.3806 11.6572 12.6516 11.6572 12.9097C11.6572 13.0034 11.6761 13.2309 11.7453 13.3191L12.7153 14.3458L11.8775 16.1413L13.6665 15.0767L15.002 16.1034L14.7562 14.4089L16.2933 13.3317L14.5861 13.3319ZM11.4239 10.4153H10.3529L10.6112 9.19328H11.6065C11.9594 9.19328 12.3309 9.28703 12.3309 9.71609C12.3309 10.2641 11.9089 10.4153 11.4239 10.4153Z" fill="black"/>
    </g>
    <defs>
        <clipPath id="clip0_1161_97898">
            <rect width="16" height="16" fill="white" transform="translate(4 4)"/>
        </clipPath>
    </defs>
</svg>
