<svg width="20" height="18" viewBox="0 0 20 18" fill="none" xmlns="http://www.w3.org/2000/svg">
    <g clip-path="url(#clip0_2267_45486)">
        <path d="M20 13.5C20 14.0304 19.7659 14.5391 19.3491 14.9142C18.9324 15.2893 18.3671 15.5 17.7778 15.5H2.22222C1.63285 15.5 1.06762 15.2893 0.650874 14.9142C0.234126 14.5391 0 14.0304 0 13.5V11.5H20V13.5Z" fill="#CE2028"/>
        <path d="M0 6.5H20V11.5H0V6.5Z" fill="#22408C"/>
        <path d="M17.7778 2.5H2.22222C1.63285 2.5 1.06762 2.71071 0.650874 3.08579C0.234126 3.46086 0 3.96957 0 4.5L0 6.5H20V4.5C20 3.96957 19.7659 3.46086 19.3491 3.08579C18.9324 2.71071 18.3671 2.5 17.7778 2.5Z" fill="#EEEEEE"/>
        <line x1="0" y1="0" x2="20" y2="18" stroke="red" stroke-width="1"/>
    </g>
    <defs>
        <clipPath id="clip0_2267_45486">
            <rect width="20" height="18" fill="white"/>
        </clipPath>
    </defs>
</svg>
